# Blender v2.90.1 OBJ File: ''
# www.blender.org
mtllib armature.mtl
o Bird_Cylinder.006
v 0.108044 -0.020440 -1.632305
v 0.078556 0.115542 1.962508
v 0.078547 0.115542 -0.858836
v 0.078556 -0.045081 1.962508
v 0.078547 -0.140161 -0.858836
v 0.108044 -0.123131 -1.632305
v 0.043866 -0.160184 -0.970143
v 0.043866 0.135565 -0.970143
v 0.028255 0.144578 -1.301224
v 0.028255 -0.169197 -1.301224
v 0.014199 0.115542 -0.294567
v -0.051684 0.115542 0.269702
v -0.051685 0.115542 0.560436
v 0.014200 0.115542 1.398239
v 0.014199 -0.045081 -0.294567
v -0.051685 -0.163341 0.269702
v -0.051685 -0.045081 0.560436
v 0.014200 -0.045081 1.398239
v -0.383174 0.115542 3.037648
v -0.383174 0.025085 3.037648
v 0.214184 0.010157 -1.927096
v 0.214184 -0.031830 -1.908536
v -1.433493 0.532539 -0.945582
v -1.499375 0.532538 -0.381313
v -1.499376 0.532539 0.383129
v -1.433493 0.514392 -0.731812
v -1.499378 0.514393 -0.381313
v -1.499377 0.514392 0.169359
v -3.355005 0.115541 0.764959
v -3.420889 0.115541 1.329228
v -3.243836 0.115542 2.541494
v -3.067174 0.121774 0.699108
v -3.133058 0.121774 1.263378
v -2.956004 0.121775 1.524186
v -0.469091 0.307418 -0.807445
v -0.469091 0.192628 -0.709082
v -0.534974 0.307417 -0.243176
v -0.534974 0.240189 -0.243176
v 0.280000 -0.092205 -2.073775
v 0.280000 -0.100125 -2.066586
v -0.534976 0.192628 0.422901
v -0.534976 0.307419 0.521265
v 0.491940 -0.020440 -1.632305
v 0.521446 0.115542 1.962508
v 0.521437 0.115542 -0.858837
v 0.521446 -0.045081 1.962508
v 0.521437 -0.140161 -0.858837
v 0.491940 -0.123131 -1.632305
v 0.556118 -0.160184 -0.970144
v 0.556118 0.135565 -0.970144
v 0.571728 0.144578 -1.301224
v 0.571728 -0.169197 -1.301224
v 0.585790 0.115542 -0.294568
v 0.651675 0.115542 0.269701
v 0.651674 0.115542 0.560435
v 0.585791 0.115542 1.398239
v 0.585790 -0.045081 -0.294568
v 0.651675 -0.163341 0.269701
v 0.651674 -0.045081 0.560435
v 0.585791 -0.045081 1.398239
v 0.983177 0.115542 3.037647
v 0.983177 0.025085 3.037647
v 0.385799 0.010157 -1.927096
v 0.385799 -0.031830 -1.908536
v 2.033483 0.532539 -0.945581
v 2.099369 0.532540 -0.381312
v 2.099369 0.532540 0.383129
v 2.033483 0.514393 -0.731812
v 2.099367 0.514393 -0.381313
v 2.099368 0.514393 0.169359
v 3.954994 0.115543 0.764958
v 4.020878 0.115543 1.329226
v 3.843825 0.115543 2.541491
v 3.667163 0.121776 0.699107
v 3.733047 0.121776 1.263376
v 3.555995 0.121776 1.524185
v 0.299992 0.090381 -1.632305
v 0.300001 0.243393 1.962508
v 0.299992 0.243393 -0.858836
v 0.300001 -0.098576 1.962508
v 0.299992 -0.268013 -0.858836
v 0.299992 -0.233952 -1.632305
v 0.299992 -0.308058 -0.970143
v 0.299992 0.283439 -0.970143
v 0.299992 -0.326084 -1.301224
v 0.299992 0.301465 -1.301224
v 0.299995 0.243393 1.398239
v 0.299995 0.243393 0.833970
v 0.299994 0.243393 0.269701
v 0.299994 0.243393 -0.294568
v 0.299994 -0.268013 -0.294568
v 0.299995 -0.268012 0.269701
v 0.299995 -0.268013 0.833970
v 0.299995 -0.119113 1.398239
v 0.300001 0.243393 3.037647
v 0.300001 0.105321 3.037647
v 0.299992 0.055467 -1.947127
v 0.299992 -0.077140 -1.888505
v 1.069084 0.307419 -0.807445
v 1.069084 0.192629 -0.709082
v 1.134969 0.307419 -0.243176
v 1.134969 0.240190 -0.243176
v 0.319983 -0.092205 -2.073775
v 0.319983 -0.100125 -2.066586
v 1.134968 0.192629 0.422901
v 0.299992 -0.083659 -2.081532
v 1.134968 0.307419 0.521265
v 0.299992 -0.108671 -2.058828
vn -0.4500 0.8927 -0.0257
vn -0.9936 0.0000 -0.1133
vn -0.5684 -0.8219 0.0368
vn -0.9936 0.0000 0.1133
vn -0.9969 0.0000 0.0784
vn -0.3223 -0.8709 0.3709
vn -0.4500 0.8927 0.0257
vn -0.3788 0.9253 0.0178
vn -0.3417 0.9398 0.0000
vn -0.3722 0.9279 -0.0217
vn -0.2715 0.9607 -0.0583
vn -0.9188 0.0000 -0.3946
vn -0.2347 -0.9714 -0.0374
vn 0.0564 -0.9804 -0.1888
vn -0.2035 0.9789 0.0182
vn 0.2273 0.9738 -0.0000
vn 0.2237 0.9743 0.0261
vn -0.2225 -0.8970 -0.3820
vn 0.0149 -0.9999 -0.0036
vn 0.0217 -0.9998 0.0022
vn 0.0185 -0.9998 -0.0005
vn 0.0222 -0.9997 0.0026
vn 0.3329 -0.9390 0.0869
vn -0.2353 0.9715 -0.0275
vn 0.3328 0.9422 0.0389
vn -0.3062 -0.3202 0.8965
vn 0.3690 0.9294 0.0000
vn 0.6021 -0.2685 -0.7519
vn 0.1146 -0.9760 0.1851
vn 0.4500 0.8927 -0.0257
vn 0.9936 -0.0000 -0.1133
vn 0.5684 -0.8219 0.0368
vn 0.9936 0.0000 0.1133
vn 0.9969 0.0000 0.0784
vn 0.3223 -0.8709 0.3709
vn 0.4500 0.8927 0.0257
vn 0.3788 0.9253 0.0178
vn 0.3417 0.9398 0.0000
vn 0.3722 0.9279 -0.0217
vn 0.2715 0.9607 -0.0583
vn 0.9188 0.0000 -0.3946
vn 0.2347 -0.9714 -0.0374
vn -0.0564 -0.9804 -0.1888
vn 0.2035 0.9789 0.0182
vn -0.2273 0.9738 -0.0000
vn -0.2237 0.9743 0.0261
vn 0.2225 -0.8970 -0.3820
vn -0.0149 -0.9999 -0.0036
vn -0.0185 -0.9998 -0.0005
vn -0.0217 -0.9998 0.0022
vn -0.0222 -0.9997 0.0026
vn -0.3329 -0.9390 0.0869
vn 0.2353 0.9715 -0.0275
vn -0.3328 0.9422 0.0389
vn 0.3062 -0.3202 0.8965
vn -0.3690 0.9294 -0.0000
vn -0.6021 -0.2685 -0.7519
vn -0.1146 -0.9760 0.1851
vn 0.0000 0.0000 1.0000
vn -0.4861 -0.8419 -0.2343
vn -0.4774 0.8268 0.2975
vn -0.4377 0.7581 -0.4834
vn -0.9722 0.0000 -0.2343
vn -0.9547 0.0000 0.2975
vn -0.4774 -0.8268 0.2975
vn -0.9989 0.0000 0.0471
vn -0.4994 0.8651 0.0471
vn -0.4994 -0.8651 0.0471
vn 0.4861 -0.8419 -0.2343
vn 0.4774 0.8268 0.2975
vn 0.4377 0.7581 -0.4834
vn 0.9722 0.0000 -0.2343
vn 0.9547 0.0000 0.2975
vn 0.4774 -0.8268 0.2975
vn 0.9989 0.0000 0.0471
vn 0.4994 0.8651 0.0471
vn 0.4994 -0.8651 0.0471
vn -0.4124 -0.7915 -0.4511
vn -0.9331 -0.0458 -0.3567
vn -0.4930 0.8652 -0.0920
vn -0.9357 -0.1618 -0.3136
vn -0.4765 0.6086 -0.6345
vn -0.4815 -0.8607 0.1651
vn 0.4124 -0.7915 -0.4511
vn 0.9331 -0.0458 -0.3567
vn 0.4930 0.8652 -0.0920
vn 0.9357 -0.1618 -0.3136
vn 0.4765 0.6086 -0.6345
vn 0.4815 -0.8607 0.1651
vn 0.0000 -0.6721 -0.7404
vn -0.2437 -0.9693 0.0315
vn -0.4596 -0.8806 0.1151
vn -0.4593 -0.8806 0.1161
vn -0.4579 -0.8807 0.1209
vn -0.4576 -0.8808 0.1218
vn -0.4538 -0.8831 -0.1190
vn -0.2881 -0.9569 -0.0374
vn -0.2958 -0.9552 0.0079
vn 0.2677 -0.9627 0.0386
vn 0.2050 -0.9777 -0.0447
vn -0.4665 -0.8764 -0.1198
vn -0.5796 -0.8127 0.0601
vn 0.2437 -0.9693 0.0315
vn 0.4596 -0.8806 0.1151
vn 0.4579 -0.8807 0.1208
vn 0.4593 -0.8806 0.1161
vn 0.4576 -0.8808 0.1218
vn 0.4538 -0.8831 -0.1190
vn 0.2881 -0.9569 -0.0374
vn 0.2958 -0.9552 0.0079
vn -0.2677 -0.9627 0.0386
vn -0.2050 -0.9777 -0.0447
vn 0.4665 -0.8764 -0.1198
vn 0.5796 -0.8127 0.0601
usemtl BirdBack.001
s 1
f 90//1 79//1 3//1 11//1
f 11//2 3//2 5//2 15//2
f 15//3 5//3 81//3 91//3
f 2//4 14//4 18//4 4//4
f 14//5 13//5 17//5 18//5
f 41//6 42//6 25//6 28//6
f 78//7 87//7 14//7 2//7
f 87//8 88//8 13//8 14//8
f 88//9 89//9 12//9 13//9
f 89//10 90//10 11//10 12//10
f 78//11 2//11 19//11 95//11
f 2//12 4//12 20//12 19//12
f 4//13 80//13 20//13
f 23//14 26//14 32//14 29//14
f 25//15 24//15 30//15 31//15
f 42//16 37//16 24//16 25//16
f 37//17 35//17 23//17 24//17
f 35//18 36//18 26//18 23//18
f 31//19 30//20 33//21 34//19
f 30//20 29//22 32//22 33//21
f 28//23 25//23 31//23 34//23
f 24//24 23//24 29//24 30//24
f 12//25 11//25 35//25 37//25
f 17//26 13//26 42//26 41//26
f 13//27 12//27 37//27 42//27
f 11//28 15//28 36//28 35//28
f 20//29 80//29 96//29
f 90//30 53//30 45//30 79//30
f 53//31 57//31 47//31 45//31
f 57//32 91//32 81//32 47//32
f 44//33 46//33 60//33 56//33
f 56//34 60//34 59//34 55//34
f 105//35 70//35 67//35 107//35
f 78//36 44//36 56//36 87//36
f 87//37 56//37 55//37 88//37
f 88//38 55//38 54//38 89//38
f 89//39 54//39 53//39 90//39
f 78//40 95//40 61//40 44//40
f 44//41 61//41 62//41 46//41
f 46//42 62//42 80//42
f 65//43 71//43 74//43 68//43
f 67//44 73//44 72//44 66//44
f 107//45 67//45 66//45 101//45
f 101//46 66//46 65//46 99//46
f 99//47 65//47 68//47 100//47
f 73//48 76//48 75//49 72//50
f 72//50 75//49 74//51 71//51
f 70//52 76//52 73//52 67//52
f 66//53 72//53 71//53 65//53
f 54//54 101//54 99//54 53//54
f 59//55 105//55 107//55 55//55
f 55//56 107//56 101//56 54//56
f 53//57 99//57 100//57 57//57
f 62//58 96//58 80//58
f 19//59 20//59 96//59 62//59 61//59 95//59
usemtl BirdHead
f 85//60 10//60 6//60 82//60
f 3//61 79//61 84//61 8//61
f 9//62 86//62 77//62 1//62
f 10//63 9//63 1//63 6//63
f 5//64 3//64 8//64 7//64
f 81//65 5//65 7//65 83//65
f 7//66 8//66 9//66 10//66
f 8//67 84//67 86//67 9//67
f 83//68 7//68 10//68 85//68
f 85//69 82//69 48//69 52//69
f 45//70 50//70 84//70 79//70
f 51//71 43//71 77//71 86//71
f 52//72 48//72 43//72 51//72
f 47//73 49//73 50//73 45//73
f 81//74 83//74 49//74 47//74
f 49//75 52//75 51//75 50//75
f 50//76 51//76 86//76 84//76
f 83//77 85//77 52//77 49//77
usemtl BirdCsor
f 82//78 6//78 22//78 98//78
f 6//79 1//79 21//79 22//79
f 1//80 77//80 97//80 21//80
f 22//81 21//81 39//81 40//81
f 21//82 97//82 106//82 39//82
f 98//83 22//83 40//83 108//83
f 82//84 98//84 64//84 48//84
f 48//85 64//85 63//85 43//85
f 43//86 63//86 97//86 77//86
f 64//87 104//87 103//87 63//87
f 63//88 103//88 106//88 97//88
f 98//89 108//89 104//89 64//89
f 40//90 39//90 106//90 103//90 104//90 108//90
usemtl BirdStomach
f 4//91 18//91 94//91 80//91
f 18//92 17//93 93//94 94//92
f 17//93 16//95 92//95 93//94
f 16//96 15//96 91//96 92//96
f 38//97 41//97 28//97 27//97
f 36//98 38//98 27//98 26//98
f 26//99 27//99 33//99 32//99
f 27//100 28//100 34//100 33//100
f 15//101 16//101 38//101 36//101
f 16//102 17//102 41//102 38//102
f 46//103 80//103 94//103 60//103
f 60//104 94//104 93//105 59//106
f 59//106 93//105 92//107 58//107
f 58//108 92//108 91//108 57//108
f 102//109 69//109 70//109 105//109
f 100//110 68//110 69//110 102//110
f 68//111 74//111 75//111 69//111
f 69//112 75//112 76//112 70//112
f 57//113 100//113 102//113 58//113
f 58//114 102//114 105//114 59//114
