# Blender v2.90.1 OBJ File: ''
# www.blender.org
mtllib barrel.mtl
o Barrel_Cylinder
v 0.000000 3.267941 -2.326657
v 0.890373 3.267941 -2.149551
v 1.645195 3.267941 -1.645195
v 2.149551 3.267941 -0.890373
v 2.326657 3.267941 0.000000
v 2.149551 3.267941 0.890373
v 1.645195 3.267941 1.645195
v 0.890373 3.267941 2.149551
v 0.000000 3.267941 2.326657
v -0.890373 3.267941 2.149551
v -1.645195 3.267941 1.645196
v -2.149551 3.267941 0.890374
v -2.326657 3.267941 -0.000000
v -2.149551 3.267941 -0.890374
v -1.645195 3.267941 -1.645196
v -0.890372 3.267941 -2.149552
v -0.000000 1.304296 -2.600677
v 0.995236 1.304296 -2.402712
v 1.838956 1.304296 -1.838956
v 2.402712 1.304296 -0.995236
v 2.600677 1.304296 0.000000
v 2.402712 1.304296 0.995236
v 1.838956 1.304296 1.838956
v 0.995236 1.304296 2.402712
v 0.000000 1.304296 2.600677
v -0.995236 1.304296 2.402713
v -1.838956 1.304296 1.838957
v -2.402712 1.304296 0.995236
v -2.600677 1.304296 -0.000000
v -2.402712 1.304296 -0.995236
v -1.838956 1.304296 -1.838957
v -0.995235 1.304296 -2.402713
v 0.000000 3.267941 -2.065729
v 0.790520 3.267941 -1.908485
v 1.460691 3.267941 -1.460691
v 1.908485 3.267941 -0.790520
v 2.065729 3.267941 0.000000
v 1.908485 3.267941 0.790520
v 1.460691 3.267941 1.460691
v 0.790520 3.267941 1.908485
v 0.000000 3.267941 2.065729
v -0.790520 3.267941 1.908485
v -1.460690 3.267941 1.460691
v -1.908485 3.267941 0.790520
v -2.065729 3.267941 -0.000000
v -1.908484 3.267941 -0.790521
v -1.460690 3.267941 -1.460691
v -0.790519 3.267941 -1.908485
v 0.000000 3.029705 -2.065729
v 0.790520 3.029705 -1.908485
v 1.460691 3.029705 -1.460691
v 1.908485 3.029705 -0.790520
v 2.065729 3.029705 0.000000
v 1.908485 3.029705 0.790520
v 1.460691 3.029705 1.460691
v 0.790520 3.029705 1.908485
v 0.000000 3.029705 2.065729
v -0.790520 3.029705 1.908485
v -1.460690 3.029705 1.460691
v -1.908485 3.029705 0.790520
v -2.065729 3.029705 -0.000000
v -1.908484 3.029705 -0.790521
v -1.460690 3.029705 -1.460691
v -0.790519 3.029705 -1.908485
v 0.000000 -3.267941 -2.326657
v 0.890373 -3.267941 -2.149551
v 1.645195 -3.267941 -1.645195
v 2.149551 -3.267941 -0.890373
v 2.326657 -3.267941 0.000000
v 2.149551 -3.267941 0.890373
v 1.645195 -3.267941 1.645195
v 0.890373 -3.267941 2.149551
v 0.000000 -3.267941 2.326657
v -0.890373 -3.267941 2.149551
v -1.645195 -3.267941 1.645196
v -2.149551 -3.267941 0.890374
v -2.326657 -3.267941 -0.000000
v -2.149551 -3.267941 -0.890374
v -1.645195 -3.267941 -1.645196
v -0.890372 -3.267941 -2.149552
v -0.000000 -1.304296 -2.600677
v 0.995236 -1.304296 -2.402712
v 1.838956 -1.304296 -1.838956
v 2.402712 -1.304296 -0.995236
v 2.600677 -1.304296 0.000000
v 2.402712 -1.304296 0.995236
v 1.838956 -1.304296 1.838956
v 0.995236 -1.304296 2.402712
v 0.000000 -1.304296 2.600677
v -0.995236 -1.304296 2.402713
v -1.838956 -1.304296 1.838957
v -2.402712 -1.304296 0.995236
v -2.600677 -1.304296 -0.000000
v -2.402712 -1.304296 -0.995236
v -1.838956 -1.304296 -1.838957
v -0.995235 -1.304296 -2.402713
v 0.000000 -3.267941 -2.065729
v 0.790520 -3.267941 -1.908485
v 1.460691 -3.267941 -1.460691
v 1.908485 -3.267941 -0.790520
v 2.065729 -3.267941 0.000000
v 1.908485 -3.267941 0.790520
v 1.460691 -3.267941 1.460691
v 0.790520 -3.267941 1.908485
v 0.000000 -3.267941 2.065729
v -0.790520 -3.267941 1.908485
v -1.460690 -3.267941 1.460691
v -1.908485 -3.267941 0.790520
v -2.065729 -3.267941 -0.000000
v -1.908484 -3.267941 -0.790521
v -1.460690 -3.267941 -1.460691
v -0.790519 -3.267941 -1.908485
v 0.000000 -3.029705 -2.065729
v 0.790520 -3.029705 -1.908485
v 1.460691 -3.029705 -1.460691
v 1.908485 -3.029705 -0.790520
v 2.065729 -3.029705 0.000000
v 1.908485 -3.029705 0.790520
v 1.460691 -3.029705 1.460691
v 0.790520 -3.029705 1.908485
v 0.000000 -3.029705 2.065729
v -0.790520 -3.029705 1.908485
v -1.460690 -3.029705 1.460691
v -1.908485 -3.029705 0.790520
v -2.065729 -3.029705 -0.000000
v -1.908484 -3.029705 -0.790521
v -1.460690 -3.029705 -1.460691
v -0.790519 -3.029705 -1.908485
v -0.000000 -1.094784 -2.718223
v -0.000000 -1.457748 -2.718223
v -0.000000 1.094784 -2.718223
v -0.000000 1.457748 -2.718223
v 1.040219 1.094784 -2.511310
v 1.040219 1.457748 -2.511310
v 1.922074 1.094784 -1.922074
v 1.922074 1.457748 -1.922074
v 2.511310 1.094784 -1.040219
v 2.511310 1.457748 -1.040219
v 2.718223 1.094784 0.000000
v 2.718223 1.457748 0.000000
v 2.511310 1.094784 1.040219
v 2.511310 1.457748 1.040219
v 1.922074 1.094784 1.922074
v 1.922074 1.457748 1.922074
v 1.040219 1.094784 2.511310
v 1.040219 1.457748 2.511310
v 0.000000 1.094784 2.718223
v 0.000000 1.457748 2.718223
v -1.040218 1.094784 2.511311
v -1.040218 1.457748 2.511311
v -1.922073 1.094784 1.922074
v -1.922073 1.457748 1.922074
v -2.511310 1.094784 1.040219
v -2.511310 1.457748 1.040219
v -2.718223 1.094784 -0.000000
v -2.718223 1.457748 -0.000000
v -2.511310 1.094784 -1.040219
v -2.511310 1.457748 -1.040219
v -1.922073 1.094784 -1.922074
v -1.922073 1.457748 -1.922074
v -1.040218 1.094784 -2.511311
v -1.040218 1.457748 -2.511311
v 1.040219 -1.457748 -2.511310
v 1.040219 -1.094784 -2.511310
v 1.922074 -1.457748 -1.922074
v 1.922074 -1.094784 -1.922074
v 2.511310 -1.457748 -1.040219
v 2.511310 -1.094784 -1.040219
v 2.718223 -1.457748 0.000000
v 2.718223 -1.094784 0.000000
v 2.511310 -1.457748 1.040219
v 2.511310 -1.094784 1.040219
v 1.922074 -1.457748 1.922074
v 1.922074 -1.094784 1.922074
v 1.040219 -1.457748 2.511310
v 1.040219 -1.094784 2.511310
v 0.000000 -1.457748 2.718223
v 0.000000 -1.094784 2.718223
v -1.040218 -1.457748 2.511311
v -1.040218 -1.094784 2.511311
v -1.922073 -1.457748 1.922074
v -1.922073 -1.094784 1.922074
v -2.511310 -1.457748 1.040219
v -2.511310 -1.094784 1.040219
v -2.718223 -1.457748 -0.000000
v -2.718223 -1.094784 -0.000000
v -2.511310 -1.457748 -1.040219
v -2.511310 -1.094784 -1.040219
v -1.922073 -1.457748 -1.922074
v -1.922073 -1.094784 -1.922074
v -1.040218 -1.457748 -2.511311
v -1.040218 -1.094784 -2.511311
vn 0.1933 0.1356 -0.9717
vn 0.5504 0.1356 -0.8238
vn 0.8238 0.1356 -0.5504
vn 0.9717 0.1356 -0.1933
vn 0.9717 0.1356 0.1933
vn 0.8238 0.1356 0.5504
vn 0.5504 0.1356 0.8238
vn 0.1933 0.1356 0.9717
vn -0.1933 0.1356 0.9717
vn -0.5504 0.1356 0.8238
vn -0.8238 0.1356 0.5504
vn -0.9717 0.1356 0.1933
vn -0.9717 0.1356 -0.1933
vn -0.8238 0.1356 -0.5504
vn 0.0000 1.0000 0.0000
vn -0.5504 0.1356 -0.8238
vn -0.1933 0.1356 -0.9717
vn -0.1951 0.0000 -0.9808
vn -0.5556 0.0000 -0.8315
vn -0.8315 0.0000 -0.5556
vn -0.9808 0.0000 -0.1951
vn -0.9808 0.0000 0.1951
vn -0.8315 0.0000 0.5556
vn -0.5556 0.0000 0.8315
vn -0.1951 0.0000 0.9808
vn 0.1951 0.0000 0.9808
vn 0.5556 0.0000 0.8315
vn 0.8315 0.0000 0.5556
vn 0.9808 0.0000 0.1951
vn 0.9808 0.0000 -0.1951
vn 0.8315 0.0000 -0.5556
vn 0.5556 0.0000 -0.8315
vn 0.1951 0.0000 -0.9808
vn 0.1933 -0.1356 -0.9717
vn 0.5504 -0.1356 -0.8238
vn 0.8238 -0.1356 -0.5504
vn 0.9717 -0.1356 -0.1933
vn 0.9717 -0.1356 0.1933
vn 0.8238 -0.1356 0.5504
vn 0.5504 -0.1356 0.8238
vn 0.1933 -0.1356 0.9717
vn -0.1933 -0.1356 0.9717
vn -0.5504 -0.1356 0.8238
vn -0.8238 -0.1356 0.5504
vn -0.9717 -0.1356 0.1933
vn -0.9717 -0.1356 -0.1933
vn -0.8238 -0.1356 -0.5504
vn 0.0000 -1.0000 -0.0000
vn -0.5504 -0.1356 -0.8238
vn -0.1933 -0.1356 -0.9717
usemtl Wood.001
s 1
f 17//1 1//1 2//1 18//1
f 18//2 2//2 3//2 19//2
f 19//3 3//3 4//3 20//3
f 20//4 4//4 5//4 21//4
f 21//5 5//5 6//5 22//5
f 22//6 6//6 7//6 23//6
f 23//7 7//7 8//7 24//7
f 24//8 8//8 9//8 25//8
f 25//9 9//9 10//9 26//9
f 26//10 10//10 11//10 27//10
f 27//11 11//11 12//11 28//11
f 28//12 12//12 13//12 29//12
f 29//13 13//13 14//13 30//13
f 30//14 14//14 15//14 31//14
f 2//15 1//15 33//15 34//15
f 31//16 15//16 16//16 32//16
f 32//17 16//17 1//17 17//17
f 17//18 81//18 96//18 32//18
f 32//19 96//19 95//19 31//19
f 31//20 95//20 94//20 30//20
f 30//21 94//21 93//21 29//21
f 29//22 93//22 92//22 28//22
f 28//23 92//23 91//23 27//23
f 27//24 91//24 90//24 26//24
f 26//25 90//25 89//25 25//25
f 25//26 89//26 88//26 24//26
f 24//27 88//27 87//27 23//27
f 23//28 87//28 86//28 22//28
f 22//29 86//29 85//29 21//29
f 21//30 85//30 84//30 20//30
f 20//31 84//31 83//31 19//31
f 19//32 83//32 82//32 18//32
f 34//25 33//25 49//25 50//25
f 14//15 13//15 45//15 46//15
f 7//15 6//15 38//15 39//15
f 12//15 11//15 43//15 44//15
f 1//15 16//15 48//15 33//15
f 5//15 4//15 36//15 37//15
f 10//15 9//15 41//15 42//15
f 15//15 14//15 46//15 47//15
f 3//15 2//15 34//15 35//15
f 8//15 7//15 39//15 40//15
f 13//15 12//15 44//15 45//15
f 6//15 5//15 37//15 38//15
f 11//15 10//15 42//15 43//15
f 16//15 15//15 47//15 48//15
f 4//15 3//15 35//15 36//15
f 9//15 8//15 40//15 41//15
f 50//15 49//15 64//15 63//15 62//15 61//15 60//15 59//15 58//15 57//15 56//15 55//15 54//15 53//15 52//15 51//15
f 33//26 48//26 64//26 49//26
f 42//33 41//33 57//33 58//33
f 35//24 34//24 50//24 51//24
f 43//32 42//32 58//32 59//32
f 36//23 35//23 51//23 52//23
f 44//31 43//31 59//31 60//31
f 37//22 36//22 52//22 53//22
f 45//30 44//30 60//30 61//30
f 38//21 37//21 53//21 54//21
f 46//29 45//29 61//29 62//29
f 39//20 38//20 54//20 55//20
f 47//28 46//28 62//28 63//28
f 40//19 39//19 55//19 56//19
f 48//27 47//27 63//27 64//27
f 41//18 40//18 56//18 57//18
f 81//34 82//34 66//34 65//34
f 82//35 83//35 67//35 66//35
f 83//36 84//36 68//36 67//36
f 84//37 85//37 69//37 68//37
f 85//38 86//38 70//38 69//38
f 86//39 87//39 71//39 70//39
f 87//40 88//40 72//40 71//40
f 88//41 89//41 73//41 72//41
f 89//42 90//42 74//42 73//42
f 90//43 91//43 75//43 74//43
f 91//44 92//44 76//44 75//44
f 92//45 93//45 77//45 76//45
f 93//46 94//46 78//46 77//46
f 94//47 95//47 79//47 78//47
f 66//48 98//48 97//48 65//48
f 95//49 96//49 80//49 79//49
f 96//50 81//50 65//50 80//50
f 98//25 114//25 113//25 97//25
f 78//48 110//48 109//48 77//48
f 71//48 103//48 102//48 70//48
f 76//48 108//48 107//48 75//48
f 65//48 97//48 112//48 80//48
f 69//48 101//48 100//48 68//48
f 74//48 106//48 105//48 73//48
f 79//48 111//48 110//48 78//48
f 67//48 99//48 98//48 66//48
f 72//48 104//48 103//48 71//48
f 77//48 109//48 108//48 76//48
f 70//48 102//48 101//48 69//48
f 75//48 107//48 106//48 74//48
f 80//48 112//48 111//48 79//48
f 68//48 100//48 99//48 67//48
f 73//48 105//48 104//48 72//48
f 114//48 115//48 116//48 117//48 118//48 119//48 120//48 121//48 122//48 123//48 124//48 125//48 126//48 127//48 128//48 113//48
f 97//26 113//26 128//26 112//26
f 106//33 122//33 121//33 105//33
f 99//24 115//24 114//24 98//24
f 107//32 123//32 122//32 106//32
f 100//23 116//23 115//23 99//23
f 108//31 124//31 123//31 107//31
f 101//22 117//22 116//22 100//22
f 109//30 125//30 124//30 108//30
f 102//21 118//21 117//21 101//21
f 110//29 126//29 125//29 109//29
f 103//20 119//20 118//20 102//20
f 111//28 127//28 126//28 110//28
f 104//19 120//19 119//19 103//19
f 112//27 128//27 127//27 111//27
f 105//18 121//18 120//18 104//18
f 18//33 82//33 81//33 17//33
usemtl Rings
f 164//15 129//15 192//15 190//15 188//15 186//15 184//15 182//15 180//15 178//15 176//15 174//15 172//15 170//15 168//15 166//15
f 131//33 132//33 134//33 133//33
f 187//20 188//20 190//20 189//20
f 133//32 134//32 136//32 135//32
f 185//21 186//21 188//21 187//21
f 135//31 136//31 138//31 137//31
f 183//22 184//22 186//22 185//22
f 137//30 138//30 140//30 139//30
f 181//23 182//23 184//23 183//23
f 139//29 140//29 142//29 141//29
f 179//24 180//24 182//24 181//24
f 141//28 142//28 144//28 143//28
f 177//25 178//25 180//25 179//25
f 143//27 144//27 146//27 145//27
f 175//26 176//26 178//26 177//26
f 145//26 146//26 148//26 147//26
f 173//27 174//27 176//27 175//27
f 147//25 148//25 150//25 149//25
f 171//28 172//28 174//28 173//28
f 149//24 150//24 152//24 151//24
f 169//29 170//29 172//29 171//29
f 151//23 152//23 154//23 153//23
f 167//30 168//30 170//30 169//30
f 153//22 154//22 156//22 155//22
f 130//48 163//48 165//48 167//48 169//48 171//48 173//48 175//48 177//48 179//48 181//48 183//48 185//48 187//48 189//48 191//48
f 165//31 166//31 168//31 167//31
f 155//21 156//21 158//21 157//21
f 191//18 192//18 129//18 130//18
f 163//32 164//32 166//32 165//32
f 157//20 158//20 160//20 159//20
f 134//15 132//15 162//15 160//15 158//15 156//15 154//15 152//15 150//15 148//15 146//15 144//15 142//15 140//15 138//15 136//15
f 130//33 129//33 164//33 163//33
f 159//19 160//19 162//19 161//19
f 189//19 190//19 192//19 191//19
f 161//18 162//18 132//18 131//18
f 131//48 133//48 135//48 137//48 139//48 141//48 143//48 145//48 147//48 149//48 151//48 153//48 155//48 157//48 159//48 161//48
