# Blender v2.90.1 OBJ File: ''
# www.blender.org
mtllib box1.mtl
o Box_Cube.003
v 1.000000 -1.000000 -1.000000
v 1.000000 -1.000000 1.000000
v -1.000000 -1.000000 1.000000
v -1.000000 -1.000000 -1.000000
v 1.000000 1.000000 -0.999999
v 0.999999 1.000000 1.000001
v -1.000000 1.000000 1.000000
v -1.000000 1.000000 -1.000000
v 0.750000 -0.750000 1.000000
v -0.750000 -0.750000 1.000000
v 0.749999 0.750000 1.000000
v -0.750000 0.750000 1.000000
v 0.750000 1.000000 -0.750000
v 0.749999 1.000000 0.750001
v -0.750000 1.000000 0.750000
v -0.750000 1.000000 -0.750000
v 1.000000 -0.750000 -0.750000
v 1.000000 -0.750000 0.750000
v 1.000000 0.750000 -0.750000
v 1.000000 0.750000 0.750000
v 0.750000 -1.000000 -0.750000
v 0.750000 -1.000000 0.750000
v -0.750000 -1.000000 0.750000
v -0.750000 -1.000000 -0.750000
v -1.000000 -0.750000 0.750000
v -1.000000 -0.750000 -0.750000
v -1.000000 0.750000 0.750000
v -1.000000 0.750000 -0.750000
v 0.750000 -0.750000 -1.000000
v -0.750000 -0.750000 -1.000000
v 0.750000 0.750000 -1.000000
v -0.750000 0.750000 -1.000000
v 0.750000 -0.750000 0.900000
v -0.750000 -0.750000 0.900000
v 0.749999 0.750000 0.900000
v -0.750000 0.750000 0.900000
v 0.900000 -0.750000 -0.750000
v 0.900000 -0.750000 0.750000
v 0.900000 0.750000 -0.750000
v 0.899999 0.750000 0.750000
v 0.750000 -0.750000 -0.900000
v -0.750000 -0.750000 -0.900000
v 0.750000 0.750000 -0.900000
v -0.750000 0.750000 -0.900000
v -0.900000 -0.750000 0.750000
v -0.900000 -0.750000 -0.750000
v -0.900000 0.750000 0.750000
v -0.900000 0.750000 -0.750000
v 0.750000 -0.900000 -0.750000
v 0.750000 -0.900000 0.750000
v -0.750000 -0.900000 0.750000
v -0.750000 -0.900000 -0.750000
v 0.750000 0.900000 -0.750000
v 0.749999 0.900000 0.750001
v -0.750000 0.900000 0.750000
v -0.750000 0.900000 -0.750000
vn 0.0000 -1.0000 0.0000
vn 0.0000 1.0000 -0.0000
vn 1.0000 0.0000 0.0000
vn -0.0000 -0.0000 1.0000
vn -1.0000 -0.0000 -0.0000
vn 0.0000 0.0000 -1.0000
usemtl Box.001
s 1
f 3//1 4//1 24//1 23//1
f 7//2 6//2 14//2 15//2
f 5//3 6//3 20//3 19//3
f 3//4 2//4 9//4 10//4
f 8//5 4//5 26//5 28//5
f 4//6 8//6 32//6 30//6
f 12//3 10//3 34//3 36//3
f 6//4 7//4 12//4 11//4
f 7//4 3//4 10//4 12//4
f 2//4 6//4 11//4 9//4
f 16//3 15//3 55//3 56//3
f 6//2 5//2 13//2 14//2
f 8//2 7//2 15//2 16//2
f 5//2 8//2 16//2 13//2
f 17//4 19//4 39//4 37//4
f 6//3 2//3 18//3 20//3
f 1//3 5//3 19//3 17//3
f 2//3 1//3 17//3 18//3
f 22//6 23//6 51//6 50//6
f 2//1 3//1 23//1 22//1
f 4//1 1//1 21//1 24//1
f 1//1 2//1 22//1 21//1
f 27//1 28//1 48//1 47//1
f 4//5 3//5 25//5 26//5
f 3//5 7//5 27//5 25//5
f 7//5 8//5 28//5 27//5
f 30//3 32//3 44//3 42//3
f 1//6 4//6 30//6 29//6
f 5//6 1//6 29//6 31//6
f 8//6 5//6 31//6 32//6
f 33//4 35//4 36//4 34//4
f 10//2 9//2 33//2 34//2
f 11//1 12//1 36//1 35//1
f 9//5 11//5 35//5 33//5
f 37//3 39//3 40//3 38//3
f 20//6 18//6 38//6 40//6
f 18//2 17//2 37//2 38//2
f 19//1 20//1 40//1 39//1
f 43//6 41//6 42//6 44//6
f 29//2 30//2 42//2 41//2
f 32//1 31//1 43//1 44//1
f 31//5 29//5 41//5 43//5
f 45//5 47//5 48//5 46//5
f 25//6 27//6 47//6 45//6
f 28//4 26//4 46//4 48//4
f 26//2 25//2 45//2 46//2
f 49//1 50//1 51//1 52//1
f 21//5 22//5 50//5 49//5
f 23//3 24//3 52//3 51//3
f 24//4 21//4 49//4 52//4
f 53//2 56//2 55//2 54//2
f 13//4 16//4 56//4 53//4
f 15//6 14//6 54//6 55//6
f 14//5 13//5 53//5 54//5
