# Blender v2.90.1 OBJ File: ''
# www.blender.org
mtllib brownrock1.mtl
o BrownRock1_Icosphere.004
v 3.118035 -0.087556 0.772384
v 8.068224 1.856529 2.178120
v 2.570307 0.721237 3.884415
v -3.926210 -0.018830 1.637858
v 0.094411 2.059853 -1.979861
v 4.882242 2.679057 -1.302851
v 4.023144 4.720961 3.279963
v -4.994250 3.104189 4.058050
v -3.476612 3.840465 -1.187390
v 0.947739 5.390700 -2.952556
v 4.585982 5.681817 -0.026661
v -1.304521 6.581036 0.382570
v 3.705186 -0.264394 2.243476
v 6.190389 0.294601 1.372444
v 6.491425 1.111956 3.203707
v 7.374397 1.866080 0.205404
v 4.542202 0.840609 -0.528757
v -0.118536 -0.152105 1.210471
v -1.668310 -0.159443 3.431179
v 1.124467 0.792897 -0.625391
v -2.172979 0.680427 -0.575963
v 2.403437 2.409916 -1.888263
v 7.111805 3.877930 1.262294
v 5.367183 4.224550 -0.932335
v 2.701601 2.660610 4.402868
v 7.060878 3.326583 3.135646
v -5.278434 1.242697 3.318656
v -2.695876 1.482091 5.250713
v -1.929662 2.918205 -1.951761
v -4.624826 1.567769 0.271051
v 2.856240 4.383394 -2.311243
v 0.616170 3.763727 -3.034674
v 5.283284 5.522669 1.842722
v -1.363678 4.062423 4.413235
v -5.007459 3.511945 1.423335
v -1.148688 5.042639 -2.721994
v 2.419181 6.034481 -1.785212
v 0.961319 6.180973 2.095236
v 2.019941 6.822453 -0.159672
v -3.736808 5.123376 2.582921
v -2.959440 5.505751 -0.594725
v -0.159440 6.477343 -1.923330
v 0.580387 4.724840 2.276090
v 4.749405 6.426472 3.384722
v 1.470407 4.234543 6.317756
v -5.835438 3.519640 4.108485
v -2.101707 6.965480 -1.049840
v 2.188734 7.719407 -1.261021
v 1.696079 11.248505 5.231063
v -6.721586 8.458568 6.245693
v -5.168422 10.607953 1.024152
v -0.743256 12.035292 -1.716018
v 2.569706 12.194033 1.124364
v -2.929249 14.017953 2.489727
v 1.386929 4.080081 4.522250
v 2.629865 5.404634 2.549419
v 3.458353 5.506197 4.985877
v 3.489156 6.920510 0.761688
v 1.143050 5.797991 -0.083594
v -1.978788 2.181367 4.208638
v -3.402572 2.774564 5.991174
v -1.880256 5.110931 1.408935
v -4.598321 4.119507 2.406758
v -0.120373 6.847283 -1.707683
v 3.902246 8.829869 2.010268
v 3.196604 9.579162 -0.755298
v 1.417953 8.309237 6.512491
v 3.806133 8.182738 4.652858
v -7.063004 5.692515 5.570420
v -4.263851 7.060799 7.434677
v -3.727777 8.826876 -0.016959
v -6.580452 5.330505 2.865284
v 1.062433 9.967836 -1.883268
v -1.163278 9.550545 -2.319660
v 2.529317 12.021618 3.371952
v -2.925899 10.857343 6.547902
v -6.760407 9.096872 3.687199
v -2.798825 12.175751 -0.948662
v 0.734046 12.749138 -0.471682
v -0.664226 13.608122 4.191658
v 0.377420 14.046644 1.713740
v -5.389514 11.988443 4.711723
v -4.584168 12.942667 1.512432
v -1.799946 13.725614 -0.023458
vn 0.1558 -0.9714 -0.1790
vn 0.6798 -0.6922 -0.2424
vn 0.0035 -0.9927 -0.1207
vn -0.0479 -0.8745 -0.4826
vn 0.0274 -0.8277 -0.5605
vn 0.9048 0.2845 -0.3168
vn 0.1905 -0.2655 0.9451
vn -0.3465 -0.8626 0.3686
vn -0.2209 -0.4933 -0.8414
vn 0.2485 -0.2572 -0.9339
vn 0.8605 0.4820 0.1652
vn 0.2060 -0.2657 0.9418
vn -0.8015 -0.5517 -0.2307
vn -0.2101 -0.4673 -0.8588
vn 0.4834 0.0578 -0.8735
vn 0.1556 0.7984 0.5817
vn -0.2448 0.6667 0.7039
vn -0.8107 0.4029 -0.4247
vn -0.1829 0.5714 -0.8000
vn 0.3987 0.8598 -0.3189
vn -0.0863 0.9924 -0.0875
vn 0.1760 0.9021 -0.3940
vn 0.1644 0.7614 -0.6271
vn -0.4205 0.8727 -0.2481
vn -0.4969 0.6577 -0.5661
vn -0.6409 0.4262 -0.6384
vn -0.5327 0.8458 -0.0285
vn -0.7439 0.6604 -0.1025
vn -0.8133 0.5744 0.0930
vn -0.1580 0.8946 0.4180
vn -0.1145 0.7878 0.6052
vn 0.0625 0.7047 0.7068
vn -0.0274 0.9648 0.2616
vn 0.1610 0.9268 0.3392
vn 0.4083 0.9098 -0.0748
vn 0.5472 0.6334 -0.5472
vn 0.4639 0.3780 -0.8012
vn 0.4675 0.3783 -0.7990
vn 0.4643 0.3781 -0.8009
vn 0.4680 0.3783 -0.7986
vn -0.1213 0.0747 -0.9898
vn -0.3203 -0.2166 -0.9222
vn -0.4993 -0.1272 -0.8570
vn -0.8629 0.1210 -0.4907
vn -0.9744 -0.0639 -0.2158
vn -0.9897 0.1405 0.0267
vn -0.1913 0.3910 0.9003
vn 0.0933 0.2635 0.9601
vn 0.1411 0.4025 0.9045
vn 0.3369 0.6651 0.6664
vn 0.6901 0.6890 0.2215
vn 0.6287 0.7589 -0.1699
vn 0.3112 -0.0155 -0.9502
vn 0.3634 -0.2742 -0.8904
vn 0.1160 -0.5482 -0.8282
vn -0.5421 -0.2424 -0.8046
vn -0.4311 -0.4381 -0.7888
vn -0.4466 -0.6887 -0.5712
vn -0.5699 -0.2267 0.7898
vn -0.3218 -0.7862 0.5276
vn 0.0755 -0.7188 0.6911
vn 0.2090 0.3612 0.9088
vn 0.2850 -0.0439 0.9575
vn 0.5817 -0.1249 0.8037
vn 0.6596 0.6188 -0.4266
vn 0.7522 0.3807 -0.5378
vn 0.5265 0.0384 -0.8493
vn 0.2516 -0.4147 -0.8745
vn 0.0307 -0.6302 -0.7758
vn 0.1308 -0.6724 -0.7285
vn 0.0144 -0.7247 -0.6889
vn 0.0239 -0.8954 -0.4447
vn -0.0722 -0.9332 -0.3519
vn -0.0383 -0.9988 -0.0301
vn -0.0239 -0.9995 -0.0200
vn 0.1092 -0.8170 0.5662
vn 0.3668 -0.4178 -0.8312
vn 0.4065 -0.7220 -0.5598
vn 0.1925 -0.8862 -0.4214
vn 0.1814 -0.7826 0.5955
vn 0.3187 -0.8839 0.3421
vn 0.5471 -0.7942 0.2645
vn 0.3366 -0.8661 -0.3695
vn 0.5204 -0.7582 -0.3928
vn 0.4788 -0.7832 -0.3967
vn 0.1436 -0.6863 -0.7130
vn 0.0028 -0.9105 -0.4134
vn 0.9043 0.0788 -0.4196
vn 0.5703 -0.0319 0.8208
vn -0.5778 -0.6545 0.4876
vn -0.6926 -0.2248 -0.6854
vn 0.2405 -0.1451 -0.9597
vn 0.9096 0.3948 0.1298
vn 0.1696 -0.0449 0.9845
vn -0.8938 -0.4370 -0.1010
vn -0.6396 -0.1392 -0.7560
vn 0.4656 -0.0117 -0.8849
vn 0.4840 0.7097 0.5120
vn -0.3691 0.4841 0.7934
vn -0.8844 0.2967 -0.3603
vn -0.2411 0.6073 -0.7570
vn 0.5433 0.7578 -0.3613
vn -0.0398 0.9903 -0.1331
vn 0.2455 0.8506 -0.4649
vn 0.1758 0.7493 -0.6385
vn -0.4004 0.8720 -0.2814
vn -0.4971 0.6580 -0.5656
vn -0.7210 0.3100 -0.6197
vn -0.5811 0.8083 0.0948
vn -0.8875 0.4522 -0.0886
vn -0.9127 0.3931 0.1119
vn -0.2294 0.8317 0.5056
vn -0.1722 0.7187 0.6737
vn 0.1864 0.5462 0.8166
vn 0.0358 0.9814 0.1887
vn 0.4872 0.8016 0.3466
vn 0.6547 0.7527 0.0695
vn 0.6381 0.5444 -0.5445
vn 0.4808 0.4413 -0.7577
vn 0.4399 0.4472 -0.7788
vn -0.3198 0.2744 -0.9069
vn -0.6642 -0.0236 -0.7472
vn -0.6213 -0.0453 -0.7823
vn -0.8722 0.0642 -0.4850
vn -0.9846 -0.0090 -0.1744
vn -0.9928 0.1120 0.0430
vn -0.2670 0.3074 0.9133
vn 0.1173 0.1865 0.9754
vn 0.2252 0.3714 0.9008
vn 0.7501 0.4199 0.5108
vn 0.9295 0.3490 0.1193
vn 0.9246 0.3782 0.0456
vn 0.1502 0.2093 -0.9662
vn 0.2151 -0.1359 -0.9671
vn -0.3155 -0.3237 -0.8920
vn -0.6526 -0.0879 -0.7526
vn -0.4115 -0.3559 -0.8390
vn -0.5153 -0.6189 -0.5928
vn -0.4974 -0.1473 0.8549
vn -0.3869 -0.3632 0.8476
vn 0.0303 -0.3135 0.9491
vn 0.6003 0.2712 0.7524
vn 0.6149 0.0182 0.7884
vn 0.7852 -0.0250 0.6187
vn 0.9322 0.3302 -0.1484
vn 0.9655 -0.0406 -0.2573
vn 0.7650 -0.2536 -0.5920
vn 0.3688 -0.6233 -0.6896
vn -0.0569 -0.8582 -0.5102
vn -0.2366 -0.7858 -0.5714
vn 0.0675 -0.7936 -0.6047
vn -0.0136 -0.6906 -0.7231
vn -0.2742 -0.8270 -0.4909
vn -0.3286 -0.9431 0.0514
vn 0.3721 -0.7500 0.5468
vn 0.2821 -0.9569 0.0692
vn 0.5121 -0.6339 -0.5796
vn 0.5089 -0.7616 -0.4012
vn 0.3365 -0.8849 -0.3222
vn 0.5596 -0.8275 0.0452
vn 0.5841 -0.7946 -0.1655
vn 0.4700 -0.8740 -0.1234
usemtl BrownRock1.001
s 1
f 1//1 14//1 13//1
f 2//2 14//2 16//2
f 1//3 13//3 18//3
f 1//4 18//4 20//4
f 1//5 20//5 17//5
f 2//6 16//6 23//6
f 3//7 15//7 25//7
f 4//8 19//8 27//8
f 5//9 21//9 29//9
f 6//10 22//10 31//10
f 2//11 23//11 26//11
f 3//12 25//12 28//12
f 4//13 27//13 30//13
f 5//14 29//14 32//14
f 6//15 31//15 24//15
f 7//16 33//16 38//16
f 8//17 34//17 40//17
f 9//18 35//18 41//18
f 10//19 36//19 42//19
f 11//20 37//20 39//20
f 39//21 42//21 12//21
f 39//22 37//22 42//22
f 37//23 10//23 42//23
f 42//24 41//24 12//24
f 42//25 36//25 41//25
f 36//26 9//26 41//26
f 41//27 40//27 12//27
f 41//28 35//28 40//28
f 35//29 8//29 40//29
f 40//30 38//30 12//30
f 40//31 34//31 38//31
f 34//32 7//32 38//32
f 38//33 39//33 12//33
f 38//34 33//34 39//34
f 33//35 11//35 39//35
f 24//36 37//36 11//36
f 24//37 31//38 37//39
f 31//38 10//40 37//39
f 32//41 36//41 10//41
f 32//42 29//42 36//42
f 29//43 9//43 36//43
f 30//44 35//44 9//44
f 30//45 27//45 35//45
f 27//46 8//46 35//46
f 28//47 34//47 8//47
f 28//48 25//48 34//48
f 25//49 7//49 34//49
f 26//50 33//50 7//50
f 26//51 23//51 33//51
f 23//52 11//52 33//52
f 31//53 32//53 10//53
f 31//54 22//54 32//54
f 22//55 5//55 32//55
f 29//56 30//56 9//56
f 29//57 21//57 30//57
f 21//58 4//58 30//58
f 27//59 28//59 8//59
f 27//60 19//60 28//60
f 19//61 3//61 28//61
f 25//62 26//62 7//62
f 25//63 15//63 26//63
f 15//64 2//64 26//64
f 23//65 24//65 11//65
f 23//66 16//66 24//66
f 16//67 6//67 24//67
f 17//68 22//68 6//68
f 17//69 20//69 22//69
f 20//70 5//70 22//70
f 20//71 21//71 5//71
f 20//72 18//72 21//72
f 18//73 4//73 21//73
f 18//74 19//74 4//74
f 18//75 13//75 19//75
f 13//76 3//76 19//76
f 16//77 17//77 6//77
f 16//78 14//78 17//78
f 14//79 1//79 17//79
f 13//80 15//80 3//80
f 13//81 14//81 15//81
f 14//82 2//82 15//82
f 43//83 56//83 55//83
f 44//84 56//84 58//84
f 43//85 55//85 60//85
f 43//86 60//86 62//86
f 43//87 62//87 59//87
f 44//88 58//88 65//88
f 45//89 57//89 67//89
f 46//90 61//90 69//90
f 47//91 63//91 71//91
f 48//92 64//92 73//92
f 44//93 65//93 68//93
f 45//94 67//94 70//94
f 46//95 69//95 72//95
f 47//96 71//96 74//96
f 48//97 73//97 66//97
f 49//98 75//98 80//98
f 50//99 76//99 82//99
f 51//100 77//100 83//100
f 52//101 78//101 84//101
f 53//102 79//102 81//102
f 81//103 84//103 54//103
f 81//104 79//104 84//104
f 79//105 52//105 84//105
f 84//106 83//106 54//106
f 84//107 78//107 83//107
f 78//108 51//108 83//108
f 83//109 82//109 54//109
f 83//110 77//110 82//110
f 77//111 50//111 82//111
f 82//112 80//112 54//112
f 82//113 76//113 80//113
f 76//114 49//114 80//114
f 80//115 81//115 54//115
f 80//116 75//116 81//116
f 75//117 53//117 81//117
f 66//118 79//118 53//118
f 66//119 73//119 79//119
f 73//120 52//120 79//120
f 74//121 78//121 52//121
f 74//122 71//122 78//122
f 71//123 51//123 78//123
f 72//124 77//124 51//124
f 72//125 69//125 77//125
f 69//126 50//126 77//126
f 70//127 76//127 50//127
f 70//128 67//128 76//128
f 67//129 49//129 76//129
f 68//130 75//130 49//130
f 68//131 65//131 75//131
f 65//132 53//132 75//132
f 73//133 74//133 52//133
f 73//134 64//134 74//134
f 64//135 47//135 74//135
f 71//136 72//136 51//136
f 71//137 63//137 72//137
f 63//138 46//138 72//138
f 69//139 70//139 50//139
f 69//140 61//140 70//140
f 61//141 45//141 70//141
f 67//142 68//142 49//142
f 67//143 57//143 68//143
f 57//144 44//144 68//144
f 65//145 66//145 53//145
f 65//146 58//146 66//146
f 58//147 48//147 66//147
f 59//148 64//148 48//148
f 59//149 62//149 64//149
f 62//150 47//150 64//150
f 62//151 63//151 47//151
f 62//152 60//152 63//152
f 60//153 46//153 63//153
f 60//154 61//154 46//154
f 60//155 55//155 61//155
f 55//156 45//156 61//156
f 58//157 59//157 48//157
f 58//158 56//158 59//158
f 56//159 43//159 59//159
f 55//160 57//160 45//160
f 55//161 56//161 57//161
f 56//162 44//162 57//162
