# Blender v2.90.1 OBJ File: ''
# www.blender.org
mtllib cactus2.mtl
o Cactus2_Circle.003
v -0.409307 -0.000000 -0.912397
v -0.833009 -0.000000 -0.243172
v -0.782278 0.000000 0.378732
v -0.027102 0.000000 0.999633
v 0.764647 0.000000 0.644450
v 0.802136 0.000000 -0.149201
v 0.279678 -0.000000 -0.842063
v -0.119084 4.049337 -0.985594
v -0.726313 4.049337 -0.477008
v -0.867202 4.049337 0.130847
v -0.336738 4.049337 0.952076
v 0.525540 4.049337 0.854623
v 0.802722 4.049337 0.110004
v 0.515837 4.049337 -0.708970
v 0.057275 6.976386 -0.927403
v -0.592651 6.976386 -0.564000
v -0.829235 6.976386 -0.027237
v -0.483102 6.976386 0.824179
v 0.330395 6.976386 0.885178
v 0.716815 6.976386 0.245965
v 0.595265 6.976386 -0.560709
v -0.167167 10.919559 -0.768851
v -0.606825 10.919559 -0.328449
v -0.674620 10.919559 0.157063
v -0.202150 10.919559 0.762656
v 0.465810 10.919559 0.626167
v 0.630707 10.919559 0.024113
v 0.349006 10.919559 -0.596729
v 0.020409 11.810596 -0.540121
v -0.352823 11.810596 -0.331430
v -0.488685 11.810596 -0.023185
v -0.289912 11.810596 0.465755
v 0.177252 11.810596 0.500785
v 0.399161 11.810596 0.133706
v 0.329359 11.810596 -0.329541
v -0.008387 12.046458 -0.175249
v -0.123686 12.046458 -0.116298
v -0.168272 12.046458 -0.024547
v -0.113626 12.046458 0.125656
v 0.027354 12.046458 0.141518
v 0.098642 12.046458 0.032931
v 0.082736 12.046458 -0.108043
v -0.242223 7.298071 0.319136
v -0.433437 7.348490 -0.107104
v -0.558591 7.731257 -0.386088
v -0.500204 8.298623 -0.255937
v -0.286488 8.400108 0.220465
v -0.176592 8.141113 0.465436
v -0.128938 7.617968 0.571664
v -2.746637 9.733658 1.448186
v -2.613130 9.736207 1.314443
v -2.592548 9.737350 1.166997
v -2.736032 9.736547 0.983076
v -2.938872 9.733629 1.024518
v -2.988940 9.731890 1.207357
v -2.903388 9.731902 1.395907
v -2.653507 8.251903 1.440429
v -2.846198 8.250367 1.014013
v -2.822786 8.459940 0.641055
v -2.514807 8.811262 0.614882
v -2.231961 8.908007 1.049128
v -2.219553 8.770405 1.355924
v -2.389813 8.463392 1.599206
v -2.718761 9.400544 1.600062
v -2.496367 9.404790 1.377276
v -2.462082 9.406693 1.131662
v -2.701095 9.405355 0.825289
v -3.038984 9.400496 0.894324
v -3.122385 9.397598 1.198894
v -2.979874 9.397619 1.512977
vn -0.9973 -0.0017 -0.0731
vn 0.2535 -0.0093 -0.9673
vn 0.9796 0.0172 0.2004
vn -0.7464 -0.0121 0.6654
vn -0.7524 0.0119 -0.6586
vn 0.8816 -0.0029 -0.4720
vn 0.2640 -0.0015 0.9645
vn 0.9698 0.0129 -0.2437
vn 0.0217 0.0179 0.9996
vn -0.9496 0.0147 -0.3132
vn 0.4809 0.0099 -0.8767
vn 0.9013 0.0310 0.4322
vn -0.8857 0.0063 0.4642
vn -0.5697 0.0261 -0.8214
vn -0.8711 0.0405 0.4894
vn -0.5935 0.0222 -0.8045
vn 0.9619 0.0317 -0.2717
vn 0.0509 0.0379 0.9980
vn -0.9579 0.0322 -0.2852
vn 0.4547 0.0410 -0.8897
vn 0.9137 0.0190 0.4058
vn 0.4115 0.2081 -0.8873
vn 0.8957 0.2646 0.3575
vn -0.8379 0.1838 0.5139
vn -0.6048 0.2458 -0.7575
vn 0.9329 0.1955 -0.3025
vn 0.0863 0.2469 0.9652
vn -0.9473 0.2089 -0.2430
vn 0.6388 0.7641 -0.0906
vn -0.0466 0.8290 0.5574
vn -0.5699 0.7804 -0.2571
vn 0.3388 0.8044 -0.4880
vn 0.5129 0.7981 0.3162
vn -0.5820 0.7798 0.2307
vn -0.2955 0.7886 -0.5393
vn 0.0000 1.0000 0.0000
vn 0.6576 0.3574 0.6632
vn 0.7371 0.3525 -0.5766
vn 0.9124 0.0000 -0.4093
vn 0.9268 0.3516 0.1321
vn -0.2970 0.3754 0.8780
vn -0.8988 0.3650 -0.2427
vn -0.3356 0.2370 -0.9117
vn 0.6559 0.2427 0.7147
vn -0.3207 -0.9429 0.0903
vn 0.1268 0.9526 -0.2765
vn 0.0957 -0.6509 0.7531
vn -0.4879 -0.6826 -0.5441
vn 0.4224 0.7778 0.4654
vn -0.8587 0.3329 0.3896
vn 0.4696 0.2828 0.8364
vn -0.3691 -0.1485 0.9174
vn 0.9090 0.3942 0.1356
vn -0.9607 -0.1828 -0.2088
vn 0.7139 0.4219 -0.5589
vn -0.8757 -0.2747 0.3970
vn -0.2583 0.2167 -0.9414
vn -0.1885 0.4061 -0.8942
vn -0.0132 0.9999 0.0059
vn 0.0000 -1.0000 0.0000
usemtl CactusMaterial.006
s 1
f 3//1 10//1 9//1 2//1
f 1//2 8//2 14//2 7//2
f 6//3 13//3 12//3 5//3
f 4//4 11//4 10//4 3//4
f 2//5 9//5 8//5 1//5
f 7//6 14//6 13//6 6//6
f 5//7 12//7 11//7 4//7
f 14//8 21//8 20//8 13//8
f 12//9 19//9 18//9 11//9
f 10//10 17//10 16//10 9//10
f 8//11 15//11 21//11 14//11
f 13//12 20//12 19//12 12//12
f 11//13 18//13 17//13 10//13
f 9//14 16//14 15//14 8//14
f 18//15 25//15 24//15 17//15
f 16//16 23//16 22//16 15//16
f 21//17 28//17 27//17 20//17
f 19//18 26//18 25//18 18//18
f 17//19 24//19 23//19 16//19
f 15//20 22//20 28//20 21//20
f 20//21 27//21 26//21 19//21
f 22//22 29//22 35//22 28//22
f 27//23 34//23 33//23 26//23
f 25//24 32//24 31//24 24//24
f 23//25 30//25 29//25 22//25
f 28//26 35//26 34//26 27//26
f 26//27 33//27 32//27 25//27
f 24//28 31//28 30//28 23//28
f 35//29 42//29 41//29 34//29
f 33//30 40//30 39//30 32//30
f 31//31 38//31 37//31 30//31
f 29//32 36//32 42//32 35//32
f 34//33 41//33 40//33 33//33
f 32//34 39//34 38//34 31//34
f 30//35 37//35 36//35 29//35
f 37//36 38//36 39//36 40//36 41//36 42//36 36//36
f 65//37 51//37 50//37 64//37
f 67//38 53//38 52//38 66//38
f 48//39 49//39 43//39 44//39 45//39 46//39 47//39
f 66//40 52//40 51//40 65//40
f 64//41 50//41 56//41 70//41
f 69//42 55//42 54//42 68//42
f 46//43 45//43 59//43 60//43
f 62//44 65//44 64//44 63//44
f 44//45 43//45 57//45 58//45
f 47//46 46//46 60//46 61//46
f 43//47 49//47 63//47 57//47
f 45//48 44//48 58//48 59//48
f 48//49 47//49 61//49 62//49
f 70//50 56//50 55//50 69//50
f 49//51 48//51 62//51 63//51
f 63//52 64//52 70//52 57//52
f 61//53 66//53 65//53 62//53
f 58//54 69//54 68//54 59//54
f 60//55 67//55 66//55 61//55
f 57//56 70//56 69//56 58//56
f 59//57 68//57 67//57 60//57
f 68//58 54//58 53//58 67//58
f 51//59 52//59 53//59 54//59 55//59 56//59 50//59
f 2//60 1//60 7//60 6//60 5//60 4//60 3//60
