# Blender v2.90.1 OBJ File: ''
# www.blender.org
mtllib dynamite.mtl
o Dynamite_Circle.001
v 0.000000 1.830065 -0.318155
v -0.275530 1.830065 -0.159078
v -0.275530 1.830065 0.159077
v 0.000000 1.830065 0.318154
v 0.275530 1.830065 0.159077
v 0.275530 1.830065 -0.159077
v 0.000000 1.830065 -0.269463
v -0.233361 1.830065 -0.134731
v -0.233361 1.830065 0.134731
v 0.000000 1.830065 0.269462
v 0.233361 1.830065 0.134731
v 0.233361 1.830065 -0.134731
v 0.000000 1.830065 -0.269463
v -0.233361 1.830065 -0.134731
v -0.233361 1.830065 0.134731
v 0.000000 1.830065 0.269462
v 0.233361 1.830065 0.134731
v 0.233361 1.830065 -0.134731
v 0.000000 1.756926 -0.269463
v -0.233361 1.756926 -0.134731
v -0.233361 1.756926 0.134731
v 0.000000 1.756926 0.269462
v 0.233361 1.756926 0.134731
v 0.233361 1.756926 -0.134731
v 0.000000 -1.830065 -0.318154
v -0.275530 -1.830065 -0.159077
v -0.275530 -1.830065 0.159078
v 0.000000 -1.830065 0.318155
v 0.275530 -1.830065 0.159078
v 0.275530 -1.830065 -0.159077
v 0.000000 -1.830065 -0.269462
v -0.233361 -1.830065 -0.134731
v -0.233361 -1.830065 0.134731
v 0.000000 -1.830065 0.269463
v 0.233361 -1.830065 0.134731
v 0.233361 -1.830065 -0.134731
v 0.000000 -1.830065 -0.269462
v -0.233361 -1.830065 -0.134731
v -0.233361 -1.830065 0.134731
v 0.000000 -1.830065 0.269463
v 0.233361 -1.830065 0.134731
v 0.233361 -1.830065 -0.134731
v 0.000000 -1.756926 -0.269462
v -0.233361 -1.756926 -0.134731
v -0.233361 -1.756926 0.134731
v 0.000000 -1.756926 0.269463
v 0.233361 -1.756926 0.134731
v 0.233361 -1.756926 -0.134731
v 0.041664 1.756926 -0.024055
v 0.041664 1.756926 0.024054
v 0.000000 1.756926 0.048109
v -0.041664 1.756926 0.024054
v -0.041664 1.756926 -0.024055
v 0.000000 1.756926 -0.048110
v 0.041664 2.341843 -0.024055
v 0.041664 2.341843 0.024054
v 0.000000 2.341843 0.048109
v -0.041664 2.341843 0.024054
v -0.041664 2.341843 -0.024055
v 0.000000 2.341843 -0.048110
v 0.182799 3.040989 -0.024055
v 0.182799 3.040989 0.024054
v 0.146278 3.061041 0.048109
v 0.109756 3.081094 0.024054
v 0.109756 3.081094 -0.024055
v 0.146278 3.061041 -0.048110
v 0.592952 3.802082 -0.024055
v 0.592952 3.802082 0.024054
v 0.573329 3.838835 0.048109
v 0.553705 3.875589 0.024054
v 0.553705 3.875589 -0.024055
v 0.573329 3.838835 -0.048110
v 1.415701 4.249842 -0.024055
v 1.415701 4.249842 0.024054
v 1.420603 4.291216 0.048109
v 1.425505 4.332591 0.024054
v 1.425505 4.332591 -0.024055
v 1.420603 4.291216 -0.048110
vn 0.0000 1.0000 -0.0000
vn 0.0000 0.8000 0.6000
vn 0.5000 0.0000 0.8660
vn -1.0000 -0.0000 0.0000
vn 1.0000 0.0000 0.0000
vn -0.5000 0.0000 0.8660
vn -0.5000 -0.0000 -0.8660
vn 0.0000 0.0000 1.0000
vn 0.0000 0.0000 0.0000
vn 0.5000 0.0000 -0.8660
vn 0.0000 -1.0000 -0.0000
vn -0.5021 0.1025 -0.8587
vn -0.4651 0.2576 0.8470
vn 0.9802 -0.1979 0.0000
vn 0.5023 -0.1018 0.8587
vn -0.5021 0.1025 0.8587
vn -0.9797 0.2007 0.0000
vn 0.5023 -0.1018 -0.8587
vn -0.2502 0.4730 -0.8448
vn -0.8730 0.4878 0.0000
vn 0.4678 -0.2545 -0.8464
vn -0.4651 0.2576 -0.8470
vn 0.8803 -0.4744 0.0000
vn 0.4678 -0.2545 0.8464
vn 0.4780 -0.8783 0.0000
vn 0.2544 -0.4719 0.8442
vn -0.2502 0.4730 0.8448
vn -0.4643 0.8857 0.0000
vn 0.2544 -0.4719 -0.8442
vn 0.9931 -0.1177 0.0000
usemtl TNTRed.002
s 1
f 5//1 6//1 12//2 11//2
f 4//3 28//3 29//3 5//3
f 2//4 26//4 27//4 3//4
f 5//5 29//5 30//5 6//5
f 3//6 27//6 28//6 4//6
f 1//7 25//7 26//7 2//7
f 12//2 7//2 13//8 18//9
f 3//1 4//1 10//2 9//2
f 1//1 2//1 8//2 7//2
f 6//1 1//1 7//2 12//2
f 4//1 5//1 11//2 10//2
f 2//1 3//1 9//2 8//2
f 17//4 18//4 24//4 23//4
f 10//2 11//2 17//9 16//8
f 8//2 9//2 15//9 14//9
f 11//2 12//2 18//9 17//9
f 9//2 10//2 16//8 15//9
f 7//2 8//2 14//9 13//8
f 20//1 21//1 52//1 53//1
f 15//10 16//10 22//10 21//10
f 13//3 14//3 20//3 19//3
f 18//6 13//6 19//6 24//6
f 16//7 17//7 23//7 22//7
f 14//5 15//5 21//5 20//5
f 29//11 35//11 36//11 30//11
f 23//1 24//1 49//1 50//1
f 21//1 22//1 51//1 52//1
f 19//1 20//1 53//1 54//1
f 24//1 19//1 54//1 49//1
f 22//1 23//1 50//1 51//1
f 36//9 42//9 37//8 31//8
f 27//11 33//11 34//11 28//11
f 25//11 31//11 32//11 26//11
f 30//11 36//11 31//11 25//11
f 28//11 34//11 35//11 29//11
f 26//11 32//11 33//11 27//11
f 41//4 47//4 48//4 42//4
f 34//8 40//8 41//9 35//9
f 32//9 38//9 39//9 33//9
f 35//9 41//9 42//9 36//9
f 33//9 39//9 40//8 34//8
f 31//8 37//8 38//9 32//9
f 44//11 43//11 48//11 47//11 46//11 45//11
f 39//10 45//10 46//10 40//10
f 37//3 43//3 44//3 38//3
f 42//6 48//6 43//6 37//6
f 40//7 46//7 47//7 41//7
f 38//5 44//5 45//5 39//5
f 6//10 30//10 25//10 1//10
usemtl String.001
f 50//5 49//5 55//5 56//5
f 60//12 59//12 65//12 66//12
f 53//4 52//4 58//4 59//4
f 49//10 54//10 60//10 55//10
f 52//6 51//6 57//6 58//6
f 51//3 50//3 56//3 57//3
f 54//7 53//7 59//7 60//7
f 64//13 63//13 69//13 70//13
f 56//14 55//14 61//14 62//14
f 57//15 56//15 62//15 63//15
f 58//16 57//16 63//16 64//16
f 59//17 58//17 64//17 65//17
f 55//18 60//18 66//18 61//18
f 72//19 71//19 77//19 78//19
f 65//20 64//20 70//20 71//20
f 61//21 66//21 72//21 67//21
f 66//22 65//22 71//22 72//22
f 62//23 61//23 67//23 68//23
f 63//24 62//24 68//24 69//24
f 68//25 67//25 73//25 74//25
f 69//26 68//26 74//26 75//26
f 70//27 69//27 75//27 76//27
f 71//28 70//28 76//28 77//28
f 67//29 72//29 78//29 73//29
f 78//30 77//30 76//30 75//30 74//30 73//30
