# Blender v2.90.1 OBJ File: ''
# www.blender.org
mtllib gunCylinder.mtl
o GunBarrel_Cylinder.001
v -2.338462 -0.300155 -0.357354
v -1.634387 -0.300154 -0.357355
v -1.634387 -0.507077 -0.290121
v -2.338462 -0.507077 -0.290121
v -1.634387 -0.634962 -0.114103
v -2.338462 -0.634962 -0.114103
v -1.634387 -0.634962 0.103468
v -2.338462 -0.634962 0.103469
v -1.634387 -0.507077 0.279487
v -2.338462 -0.507077 0.279487
v -1.634387 -0.300154 0.346720
v -2.338462 -0.300155 0.346721
v -1.634387 -0.093232 0.279487
v -2.338462 -0.093232 0.279487
v -1.634387 0.034653 0.103469
v -2.338462 0.034653 0.103469
v -1.634387 0.034653 -0.114103
v -2.338462 0.034653 -0.114103
v -1.634387 -0.093232 -0.290121
v -2.338462 -0.093232 -0.290121
vn -0.0000 -0.3090 -0.9511
vn 0.0000 -0.8090 -0.5878
vn 0.0000 -1.0000 0.0000
vn 0.0000 -0.8090 0.5878
vn 0.0000 -0.3090 0.9511
vn 0.0000 0.3090 0.9511
vn 0.0000 0.8090 0.5878
vn 0.0000 1.0000 0.0000
vn 1.0000 0.0000 0.0000
vn 0.0000 0.8090 -0.5878
vn -0.0000 0.3090 -0.9511
vn -1.0000 0.0000 0.0000
usemtl GunBarrelMaterial.001
s 1
f 1//1 2//1 3//1 4//1
f 4//2 3//2 5//2 6//2
f 6//3 5//3 7//3 8//3
f 8//4 7//4 9//4 10//4
f 10//5 9//5 11//5 12//5
f 12//6 11//6 13//6 14//6
f 14//7 13//7 15//7 16//7
f 16//8 15//8 17//8 18//8
f 3//9 2//9 19//9 17//9 15//9 13//9 11//9 9//9 7//9 5//9
f 18//10 17//10 19//10 20//10
f 20//11 19//11 2//11 1//11
f 1//12 4//12 6//12 8//12 10//12 12//12 14//12 16//12 18//12 20//12
