# Blender v2.90.1 OBJ File: ''
# www.blender.org
mtllib rock3.mtl
o Rock3_Icosphere.003
v -0.665227 6.193583 -4.103006
v 5.285185 1.104375 2.572641
v -3.909168 5.114170 -2.400435
v 0.620920 1.733501 -6.389888
v 6.272978 3.297855 1.365442
v -4.165586 0.505329 -3.725843
v 0.780437 4.848118 2.117060
v -1.560567 4.919530 -6.174205
v 6.901212 1.763800 0.957858
v 4.864709 1.750187 -2.016616
v 6.760672 1.935675 2.203479
v 6.137814 0.500240 0.639542
v -3.908848 1.349456 -0.645649
v -1.885608 5.540557 1.088551
v -4.353504 3.163827 -2.269219
v 1.565742 5.130916 -5.597197
v 3.788939 4.492742 -2.577767
v 2.799420 3.228935 -6.207807
v -2.401619 6.408731 -2.426926
v 0.309534 6.391077 -1.559287
v 3.344288 4.899372 -0.838427
v -2.155472 2.742069 -7.086975
v -3.471165 4.213449 -5.147585
v -4.025115 6.512635 -0.194841
v 2.520550 2.983035 3.600437
v -2.029562 0.484686 -6.442739
v -2.909569 2.643018 0.853876
v 0.872564 -0.355634 -2.463587
v 1.210185 0.856209 1.241213
v 4.409999 0.370627 1.464570
v 2.002508 5.865001 -2.908478
v 5.326288 3.075547 -1.365152
v 0.557814 3.776498 -7.028142
v -2.597922 5.698374 -4.479104
v -2.118384 7.362925 -0.548274
v 4.662341 3.523718 3.037122
v 2.390942 0.452066 -3.605825
v -3.645324 2.262319 -5.068820
v -4.499486 4.223252 -0.219220
v 1.320747 2.014611 2.328434
v 6.682229 0.668684 1.910510
v -1.472031 -0.173802 -1.449286
vn 0.7712 0.5060 -0.3864
vn 0.2989 -0.9201 -0.2533
vn 0.8472 -0.4349 -0.3052
vn 0.2447 0.9245 -0.2922
vn -0.2867 -0.7638 0.5783
vn -0.3276 -0.5964 0.7328
vn -0.1517 0.6497 0.7449
vn -0.7599 -0.2172 -0.6126
vn -0.3379 -0.6268 0.7022
vn 0.0356 0.9952 -0.0909
vn 0.6155 0.7292 -0.2991
vn -0.9624 0.2070 -0.1759
vn -0.9631 0.2015 -0.1784
vn -0.9631 0.2017 -0.1783
vn -0.4444 -0.8539 0.2710
vn 0.1548 0.8712 -0.4658
vn 0.0385 0.6438 0.7643
vn -0.7516 0.5819 -0.3106
vn -0.8091 0.0486 -0.5857
vn 0.6122 0.7902 -0.0282
vn -0.1387 0.4148 -0.8993
vn -0.3239 0.0379 0.9453
vn 0.7068 0.5858 -0.3966
vn 0.8251 -0.0097 -0.5649
vn -0.5405 0.5885 -0.6012
vn 0.3442 0.9156 0.2079
vn 0.5181 -0.6939 -0.5001
vn -0.4349 0.8277 -0.3548
vn 0.0421 0.8428 -0.5366
vn 0.9882 -0.0898 0.1239
vn 0.7778 -0.3362 -0.5310
vn -0.1295 0.8686 -0.4783
vn 0.1137 -0.9901 0.0825
vn 0.1136 -0.9901 0.0823
vn 0.1132 -0.9902 0.0816
vn -0.1177 0.6552 0.7462
vn 0.1131 -0.9903 0.0813
vn -0.6409 0.7423 -0.1956
vn 0.0853 0.6929 -0.7159
vn 0.5172 0.8532 -0.0673
vn 0.0017 -0.9836 0.1803
vn 0.6381 -0.4601 -0.6174
vn 0.4053 0.9005 0.1574
vn 0.2690 -0.2796 -0.9217
vn 0.3597 -0.7394 -0.5691
vn 0.4581 0.8391 0.2935
vn -0.5843 0.6711 -0.4562
vn -0.5901 -0.2689 0.7613
vn -0.5459 0.4464 -0.7090
vn -0.9623 0.2074 -0.1757
vn 0.2907 -0.0931 0.9523
vn -0.1342 -0.9818 -0.1341
vn 0.1318 -0.2919 -0.9473
vn 0.6373 -0.5332 -0.5564
vn 0.9290 0.3660 0.0543
vn -0.6971 -0.2433 0.6744
vn -0.4921 0.0927 0.8656
vn 0.8827 -0.0798 -0.4631
vn 0.4027 0.5061 -0.7627
vn -0.4786 0.0985 0.8725
vn 0.8410 0.4312 -0.3267
vn 0.0012 -0.8342 0.5515
vn -0.1421 -0.9843 -0.1042
vn 0.1435 -0.2642 -0.9537
vn -0.1641 -0.8555 0.4911
vn 0.6344 0.5569 0.5360
vn -0.7655 -0.2320 -0.6001
vn 0.3568 -0.2314 0.9051
vn -0.1964 -0.6610 0.7242
vn 0.3546 0.8775 0.3229
vn 0.2821 -0.1265 0.9510
vn -0.1799 0.9348 -0.3064
vn -0.1593 -0.7605 0.6295
vn 0.1853 0.9717 -0.1464
vn -0.9837 -0.1347 0.1189
vn -0.1995 -0.6798 0.7058
vn 0.2192 -0.9100 -0.3520
vn -0.9545 0.2027 -0.2187
vn 0.7651 0.5637 -0.3112
vn -0.2009 0.4881 0.8494
vn 0.2612 0.9343 0.2428
vn -0.9601 0.0791 -0.2683
vn -0.9607 0.0752 -0.2672
vn -0.9607 0.0750 -0.2672
vn -0.9601 0.0792 -0.2683
vn -0.9778 -0.2065 0.0371
usemtl Rock3Material.001
s 1
f 32//1 18//1 17//1
f 12//2 28//2 37//2
f 41//3 12//3 9//3
f 16//4 1//4 31//4
f 42//5 29//5 13//5
f 13//6 29//6 27//6
f 24//7 14//7 35//7
f 26//8 38//8 22//8
f 29//9 40//9 27//9
f 1//10 19//10 20//10
f 17//11 16//11 31//11
f 39//12 24//13 3//14
f 42//15 13//15 6//15
f 19//16 35//16 20//16
f 25//17 36//17 7//17
f 23//18 3//18 34//18
f 38//19 23//19 22//19
f 21//20 17//20 31//20
f 22//21 8//21 33//21
f 27//22 40//22 14//22
f 17//23 18//23 16//23
f 9//24 10//24 32//24
f 23//25 34//25 8//25
f 36//26 5//26 21//26
f 10//27 4//27 18//27
f 24//28 35//28 19//28
f 16//29 8//29 1//29
f 41//30 9//30 11//30
f 9//31 12//31 10//31
f 8//32 34//32 1//32
f 41//33 30//34 12//35
f 14//36 7//36 35//36
f 12//35 30//34 28//37
f 3//38 19//38 34//38
f 33//39 8//39 16//39
f 21//40 5//40 17//40
f 30//41 42//41 28//41
f 37//42 4//42 10//42
f 20//43 21//43 31//43
f 4//44 33//44 18//44
f 37//45 26//45 4//45
f 35//46 7//46 20//46
f 3//47 24//47 19//47
f 40//48 25//48 14//48
f 22//49 23//49 8//49
f 15//50 39//12 3//14
f 25//51 2//51 11//51
f 42//52 6//52 28//52
f 4//53 22//53 33//53
f 12//54 37//54 10//54
f 11//55 9//55 5//55
f 13//56 27//56 39//56
f 39//57 27//57 24//57
f 10//58 18//58 32//58
f 18//59 33//59 16//59
f 24//60 27//60 14//60
f 9//61 32//61 5//61
f 30//62 41//62 2//62
f 28//63 6//63 26//63
f 4//64 26//64 22//64
f 42//65 30//65 29//65
f 11//66 5//66 36//66
f 6//67 38//67 26//67
f 2//68 41//68 11//68
f 29//69 2//69 40//69
f 20//70 7//70 21//70
f 25//71 11//71 36//71
f 34//72 19//72 1//72
f 29//73 30//73 2//73
f 1//74 20//74 31//74
f 6//75 13//75 15//75
f 40//76 2//76 25//76
f 28//77 26//77 37//77
f 23//78 15//78 3//78
f 5//79 32//79 17//79
f 14//80 25//80 7//80
f 7//81 36//81 21//81
f 38//82 15//83 23//84
f 6//85 15//83 38//82
f 13//86 39//86 15//86
