# Blender v2.90.1 OBJ File: ''
# www.blender.org
mtllib rock1.mtl
o Rock_Icosphere
v -2.724718 4.940354 -4.446987
v -0.281676 4.288048 2.272516
v 2.726046 1.921308 2.208570
v -3.498225 4.139818 0.077678
v -0.141443 0.130886 0.728269
v 5.736219 1.956805 -1.873889
v 4.163535 0.662802 -2.165882
v -0.131747 3.016147 -4.734770
v 2.296330 0.981383 -3.729993
v -0.371834 1.111159 2.839791
v 3.925982 3.301419 0.803751
v -2.107048 2.030573 2.083159
v 2.951750 5.660513 -0.438584
v -3.458983 2.060028 -0.686928
v 5.691801 3.436701 -1.486345
v -3.151741 2.402313 -3.731787
v 5.921687 2.884572 -3.047060
v 3.826240 2.479046 -4.232826
v 0.461296 0.115929 -2.297115
v 1.403603 3.050677 2.821552
v 2.189019 5.287111 -3.649591
v -0.415547 2.546218 3.294041
v 1.613550 0.731871 2.054514
v -2.236509 6.165965 0.911234
v 0.741089 7.672136 -1.709617
v -1.414098 7.108966 -3.487931
v 4.225623 1.166283 -0.080520
v -3.173503 5.518446 -2.080279
v -2.125401 0.655833 -1.313828
v 0.230163 6.436875 0.702465
v 1.004232 1.806225 3.292645
v 4.887778 2.346485 -0.026828
v 1.692366 4.324054 1.457415
v -1.854013 3.631586 2.154684
v -1.821536 0.817264 1.240284
v 1.887071 0.158748 -0.444621
v 4.409847 4.888137 -2.388601
v -1.412012 7.649601 -0.481053
v -3.966079 3.246096 -2.834941
v -1.106659 1.357726 -3.647615
v 5.250209 1.610680 -3.277490
v 0.504090 4.627973 -4.744804
vn 0.6152 0.7732 0.1537
vn -0.0890 0.0289 -0.9956
vn -0.3308 -0.8541 -0.4013
vn -0.0422 0.4253 -0.9040
vn 0.3510 -0.9036 0.2456
vn 0.5057 -0.1118 -0.8554
vn -0.7851 -0.6017 -0.1469
vn -0.3992 -0.8153 -0.4195
vn -0.2333 0.3997 0.8865
vn 0.5635 -0.6005 0.5673
vn 0.1186 -0.0529 -0.9915
vn -0.9792 -0.0860 0.1837
vn 0.4789 0.5784 -0.6604
vn 0.3209 0.5077 0.7995
vn 0.3867 0.3982 -0.8318
vn 0.3856 0.3977 -0.8326
vn 0.3903 0.3998 -0.8294
vn 0.7611 0.2436 0.6012
vn -0.1106 0.9782 -0.1758
vn 0.2362 -0.5175 -0.8225
vn 0.3300 0.7081 -0.6242
vn -0.0776 -0.5143 -0.8541
vn -0.1963 -0.4543 -0.8690
vn 0.6385 -0.7689 -0.0315
vn -0.3499 -0.9314 0.1005
vn -0.7694 0.0934 0.6319
vn 0.5850 0.2699 0.7648
vn -0.8013 -0.4569 0.3862
vn -0.7585 0.5852 -0.2868
vn 0.2645 0.5907 -0.7623
vn 0.6073 -0.7762 0.1693
vn -0.8804 0.3945 -0.2633
vn -0.8099 0.5720 0.1299
vn 0.1500 -0.9600 0.2366
vn -0.2670 -0.2195 -0.9384
vn 0.6634 0.7176 0.2118
vn 0.4213 0.7679 0.4825
vn 0.7703 -0.4526 0.4493
vn 0.3914 0.4003 -0.8286
vn -0.7178 0.6854 -0.1227
vn -0.9484 0.3120 0.0566
vn 0.5194 0.1517 0.8410
vn -0.7493 -0.6455 -0.1482
vn 0.4542 0.5576 0.6948
vn 0.4511 0.5604 0.6946
vn 0.4542 0.5577 0.6948
vn -0.5927 0.0578 0.8033
vn -0.7436 0.2007 0.6378
vn 0.3593 -0.9095 0.2089
vn 0.4646 0.5961 0.6548
vn -0.0070 -0.9073 0.4204
vn -0.5029 -0.2747 0.8195
vn 0.4574 0.5549 0.6949
vn -0.6903 -0.7123 0.1271
vn 0.4390 0.7121 -0.5478
vn 0.0036 0.5894 0.8078
vn 0.7769 0.6208 -0.1052
vn -0.7636 -0.0529 -0.6436
vn 0.9888 -0.0093 0.1489
vn 0.1487 -0.9846 -0.0917
vn -0.1567 -0.3024 0.9402
vn 0.0856 0.4991 0.8623
vn -0.2456 -0.8892 0.3860
vn -0.5618 -0.5571 0.6116
vn 0.2672 0.8336 0.4835
vn 0.8813 -0.4284 -0.1995
vn 0.0188 -0.9998 0.0087
vn -0.8664 0.4697 0.1697
vn 0.6922 -0.4152 0.5904
vn 0.1350 -0.7145 0.6865
vn 0.6470 0.5470 0.5312
vn 0.1595 0.3043 0.9391
vn 0.2713 0.6743 0.6868
vn 0.4754 -0.5351 0.6983
vn 0.1487 -0.9192 -0.3647
vn -0.2713 0.5023 0.8210
vn 0.0659 -0.3775 -0.9237
vn -0.0142 0.6884 0.7252
vn 0.8984 -0.0858 0.4308
vn -0.8856 -0.1749 0.4303
vn 0.7056 0.1005 0.7015
vn -0.1019 -0.7884 -0.6067
vn -0.2182 -0.9751 -0.0387
vn 0.2523 -0.8441 -0.4731
usemtl RockMaterial.001
s 1
f 37//1 25//1 13//1
f 42//2 8//2 1//2
f 40//3 19//3 29//3
f 42//4 1//4 26//4
f 36//5 27//5 23//5
f 41//6 18//6 17//6
f 39//7 16//7 14//7
f 16//8 40//8 29//8
f 24//9 34//9 2//9
f 23//10 27//10 3//10
f 42//11 18//11 8//11
f 39//12 14//12 4//12
f 17//13 21//13 37//13
f 30//14 2//14 33//14
f 18//15 42//16 21//17
f 15//18 11//18 32//18
f 26//19 38//19 25//19
f 18//20 41//20 9//20
f 21//21 26//21 25//21
f 8//22 9//22 40//22
f 8//23 40//23 16//23
f 41//24 6//24 7//24
f 29//25 5//25 35//25
f 4//26 12//26 34//26
f 3//27 11//27 20//27
f 14//28 35//28 12//28
f 26//29 1//29 28//29
f 42//30 26//30 21//30
f 7//31 6//31 27//31
f 1//32 39//32 28//32
f 38//33 28//33 24//33
f 5//34 36//34 23//34
f 1//35 8//35 16//35
f 37//36 13//36 15//36
f 13//37 25//37 30//37
f 6//38 32//38 27//38
f 17//39 18//15 21//17
f 26//40 28//40 38//40
f 28//41 39//41 4//41
f 3//42 20//42 31//42
f 14//43 16//43 29//43
f 13//44 30//45 33//46
f 34//47 12//47 22//47
f 24//48 4//48 34//48
f 7//49 27//49 36//49
f 11//50 33//50 20//50
f 10//51 5//51 23//51
f 22//52 12//52 10//52
f 13//44 33//46 11//53
f 14//54 29//54 35//54
f 21//55 25//55 37//55
f 30//56 24//56 2//56
f 17//57 37//57 15//57
f 1//58 16//58 39//58
f 6//59 17//59 15//59
f 19//60 7//60 36//60
f 22//61 10//61 31//61
f 20//62 2//62 22//62
f 35//63 5//63 10//63
f 12//64 35//64 10//64
f 25//65 38//65 30//65
f 41//66 17//66 6//66
f 19//67 36//67 5//67
f 24//68 28//68 4//68
f 27//69 32//69 3//69
f 10//70 23//70 31//70
f 15//71 13//71 11//71
f 20//72 22//72 31//72
f 33//73 2//73 20//73
f 23//74 3//74 31//74
f 19//75 9//75 7//75
f 2//76 34//76 22//76
f 8//77 18//77 9//77
f 38//78 24//78 30//78
f 6//79 15//79 32//79
f 4//80 14//80 12//80
f 32//81 11//81 3//81
f 40//82 9//82 19//82
f 29//83 19//83 5//83
f 9//84 41//84 7//84
