# Blender 4.0.1
# www.blender.org
mtllib toiletCap.mtl
o pCube3
v -1.570740 3.069764 0.576979
v -0.565266 3.069764 0.795404
v -1.570740 3.183396 0.576979
v -0.565266 3.183396 0.795404
v -1.570740 3.183396 0.000000
v -0.565266 3.183396 0.000000
v -1.570740 3.069764 0.000000
v -0.565266 3.069764 0.000000
v -0.565266 3.122951 0.000000
v -1.570740 3.122951 0.000000
v -1.570740 3.122951 0.576979
v -0.565266 3.122951 0.795404
v -1.570740 3.173278 0.576979
v -1.570740 3.173278 0.000000
v -0.565266 3.173278 0.000000
v -0.565266 3.173278 0.795404
v -1.570740 3.077651 0.576979
v -1.570740 3.077651 0.000000
v -0.565266 3.077651 0.000000
v -0.565266 3.077651 0.795404
v -1.570740 3.183396 0.564142
v -1.570740 3.173278 0.564142
v -1.570740 3.122951 0.564142
v -1.570740 3.077651 0.564142
v -1.570740 3.069764 0.564142
v -0.565266 3.069764 0.780634
v -0.565266 3.077651 0.780634
v -0.565266 3.122951 0.780634
v -0.565266 3.173278 0.780634
v -0.565266 3.183396 0.780634
v -1.056444 3.183396 0.000000
v -1.056444 3.183396 0.674877
v -1.056444 3.183396 0.688703
v -1.056444 3.173278 0.688703
v -1.056444 3.122951 0.688703
v -1.056444 3.077651 0.688703
v -1.056444 3.069764 0.688703
v -1.056444 3.069764 0.674877
v -1.501716 3.069764 0.000000
v -1.501716 3.069764 0.451053
v -0.634290 3.069764 0.000000
v -0.634290 3.069764 0.625460
v -1.058031 3.069764 0.540261
v -1.491905 3.069764 0.000000
v -1.491905 3.069764 0.447853
v -0.644102 3.069764 0.000000
v -0.644102 3.069764 0.618315
v -1.058257 3.069764 0.535044
v -1.477473 3.018352 0.000000
v -1.477473 3.018352 0.443147
v -0.658534 3.018352 0.000000
v -0.658534 3.018352 0.607805
v -1.058589 3.018352 0.527369
v -1.471700 3.018352 0.000000
v -1.471700 3.018352 0.441264
v -0.664307 3.018352 0.000000
v -0.664307 3.018352 0.603601
v -1.058722 3.018352 0.524299
v -1.457785 3.018352 0.000000
v -1.457785 3.018352 0.436726
v -0.678221 3.018352 0.000000
v -0.678221 3.018352 0.593468
v -1.059041 3.018352 0.516899
v -1.457785 3.024655 0.000000
v -1.457785 3.024655 0.436726
v -0.678221 3.024655 0.000000
v -0.678221 3.024655 0.593468
v -1.059041 3.024655 0.516899
v -1.457785 3.067566 0.000000
v -1.457785 3.067566 0.436726
v -0.678221 3.067566 0.000000
v -0.678221 3.067566 0.593468
v -1.059041 3.067566 0.516899
v -1.457785 3.073085 0.000000
v -1.457785 3.073085 0.436726
v -0.678221 3.073085 0.000000
v -0.678221 3.073085 0.593468
v -1.059041 3.073085 0.516899
v -1.139733 3.073085 0.000000
v -1.139733 3.073085 0.333004
v -0.996273 3.073085 0.000000
v -0.996273 3.073085 0.361848
v -1.066354 3.073085 0.347757
v -1.570740 3.069764 -0.576979
v -0.565266 3.069764 -0.795404
v -1.570740 3.183396 -0.576979
v -0.565266 3.183396 -0.795404
v -1.570740 3.122951 -0.576979
v -0.565266 3.122951 -0.795404
v -1.570740 3.173278 -0.576979
v -0.565266 3.173278 -0.795404
v -1.570740 3.077651 -0.576979
v -0.565266 3.077651 -0.795404
v -1.570740 3.183396 -0.564142
v -1.570740 3.173278 -0.564142
v -1.570740 3.122951 -0.564142
v -1.570740 3.077651 -0.564142
v -1.570740 3.069764 -0.564142
v -0.565266 3.069764 -0.780634
v -0.565266 3.077651 -0.780634
v -0.565266 3.122951 -0.780634
v -0.565266 3.173278 -0.780634
v -0.565266 3.183396 -0.780634
v -1.056444 3.183396 -0.674877
v -1.056444 3.183396 -0.688703
v -1.056444 3.173278 -0.688703
v -1.056444 3.122951 -0.688703
v -1.056444 3.077651 -0.688703
v -1.056444 3.069764 -0.688703
v -1.056444 3.069764 -0.674877
v -1.501716 3.069764 -0.451053
v -0.634290 3.069764 -0.625460
v -1.058031 3.069764 -0.540261
v -1.491905 3.069764 -0.447853
v -0.644102 3.069764 -0.618315
v -1.058257 3.069764 -0.535044
v -1.477473 3.018352 -0.443147
v -0.658534 3.018352 -0.607805
v -1.058589 3.018352 -0.527369
v -1.471700 3.018352 -0.441264
v -0.664307 3.018352 -0.603601
v -1.058722 3.018352 -0.524299
v -1.457785 3.018352 -0.436726
v -0.678221 3.018352 -0.593468
v -1.059041 3.018352 -0.516899
v -1.457785 3.024655 -0.436726
v -0.678221 3.024655 -0.593468
v -1.059041 3.024655 -0.516899
v -1.457785 3.067566 -0.436726
v -0.678221 3.067566 -0.593468
v -1.059041 3.067566 -0.516899
v -1.457785 3.073085 -0.436726
v -0.678221 3.073085 -0.593468
v -1.059041 3.073085 -0.516899
v -1.139733 3.073085 -0.333004
v -0.996273 3.073085 -0.361848
v -1.066354 3.073085 -0.347757
vn -0.2123 -0.0000 0.9772
vn -0.0000 1.0000 -0.0000
vn -0.0000 -1.0000 -0.0000
vn 1.0000 -0.0000 -0.0000
vn -1.0000 -0.0000 -0.0000
vn -0.9628 -0.2703 -0.0000
vn 0.9628 -0.2703 -0.0000
vn -0.1951 -0.1436 0.9702
vn 0.1971 -0.0000 -0.9804
vn -0.2123 -0.0000 -0.9772
vn -0.1951 -0.1436 -0.9702
vn 0.1971 -0.0000 0.9804
vt 0.625000 0.227739
vt 0.502874 0.227739
vt 0.502874 0.117015
vt 0.625000 0.117015
vt 0.502874 0.250000
vt 0.625000 0.250000
vt 0.625000 0.252214
vt 0.502874 0.252214
vt 0.625000 1.000000
vt 0.502874 1.000000
vt 0.502874 0.997786
vt 0.625000 0.997786
vt 0.627214 0.117015
vt 0.627214 0.227739
vt 0.375000 0.117015
vt 0.375000 0.227739
vt 0.372786 0.227739
vt 0.372786 0.117015
vt 0.375000 0.000000
vt 0.375000 0.017352
vt 0.372786 0.017352
vt 0.372786 0.000000
vt 0.625000 0.017352
vt 0.502874 0.017352
vt 0.502874 0.000000
vt 0.625000 0.000000
vt 0.627214 0.000000
vt 0.627214 0.017352
vt 0.375000 0.250000
vt 0.372786 0.250000
vt 0.627214 0.250000
vt 0.125000 0.227739
vt 0.125000 0.250000
vt 0.125000 0.117015
vt 0.125000 0.017352
vt 0.125000 0.000000
vt 0.875000 0.000000
vt 0.875000 0.017352
vt 0.875000 0.117015
vt 0.875000 0.227739
vt 0.875000 0.250000
vt 0.625000 0.500000
vt 0.502874 0.500000
vt 0.375000 0.252214
vt 0.375000 0.500000
vt 0.375000 1.000000
vt 0.375000 0.997786
vt 0.000000 0.000000
vt 1.000000 0.000000
vt 1.000000 1.000000
vt 0.000000 1.000000
vt 0.000000 0.000000
vt 0.505115 0.000000
vt 0.436989 0.488504
vt 0.365656 1.000000
s 1
usemtl phong2
f 16/1/1 34/2/1 35/3/1 12/4/1
f 33/5/2 4/6/2 30/7/2 32/8/2
f 2/9/3 37/10/3 38/11/3 26/12/3
f 16/1/4 12/4/4 28/13/4 29/14/4
f 11/15/5 13/16/5 22/17/5 23/18/5
f 1/19/5 17/20/5 24/21/5 25/22/5
f 20/23/1 36/24/1 37/25/1 2/26/1
f 20/23/4 2/26/4 26/27/4 27/28/4
f 22/17/5 13/16/5 3/29/5 21/30/5
f 4/6/4 16/1/4 29/14/4 30/31/4
f 4/6/1 33/5/1 34/2/1 16/1/1
f 17/20/5 11/15/5 23/18/5 24/21/5
f 12/4/4 20/23/4 27/28/4 28/13/4
f 12/4/1 35/3/1 36/24/1 20/23/1
f 14/32/5 22/17/5 21/30/5 5/33/5
f 23/18/5 22/17/5 14/32/5 10/34/5
f 24/21/5 23/18/5 10/34/5 18/35/5
f 25/22/5 24/21/5 18/35/5 7/36/5
f 27/28/4 26/27/4 8/37/4 19/38/4
f 28/13/4 27/28/4 19/38/4 9/39/4
f 29/14/4 28/13/4 9/39/4 15/40/4
f 30/31/4 29/14/4 15/40/4 6/41/4
f 32/8/2 30/7/2 6/42/2 31/43/2
f 21/44/2 32/8/2 31/43/2 5/45/2
f 3/29/2 33/5/2 32/8/2 21/44/2
f 34/2/1 33/5/1 3/29/1 13/16/1
f 35/3/1 34/2/1 13/16/1 11/15/1
f 36/24/1 35/3/1 11/15/1 17/20/1
f 37/25/1 36/24/1 17/20/1 1/19/1
f 38/11/3 37/10/3 1/46/3 25/47/3
f 25/48/3 7/49/3 39/50/3 40/51/3
f 8/48/3 26/49/3 42/50/3 41/51/3
f 38/48/3 25/49/3 40/50/3 43/51/3
f 26/48/3 38/49/3 43/50/3 42/51/3
f 40/48/3 39/49/3 44/50/3 45/51/3
f 41/48/3 42/49/3 47/50/3 46/51/3
f 43/48/3 40/49/3 45/50/3 48/51/3
f 42/48/3 43/49/3 48/50/3 47/51/3
f 45/48/6 44/49/6 49/50/6 50/51/6
f 46/48/7 47/49/7 52/50/7 51/51/7
f 48/48/8 45/49/8 50/50/8 53/51/8
f 47/48/8 48/49/8 53/50/8 52/51/8
f 50/48/3 49/49/3 54/50/3 55/51/3
f 51/48/3 52/49/3 57/50/3 56/51/3
f 53/48/3 50/49/3 55/50/3 58/51/3
f 52/48/3 53/49/3 58/50/3 57/51/3
f 55/48/3 54/49/3 59/50/3 60/51/3
f 56/48/3 57/49/3 62/50/3 61/51/3
f 58/48/3 55/49/3 60/50/3 63/51/3
f 57/48/3 58/49/3 63/50/3 62/51/3
f 60/48/4 59/49/4 64/50/4 65/51/4
f 61/48/5 62/49/5 67/50/5 66/51/5
f 63/48/9 60/49/9 65/50/9 68/51/9
f 62/48/9 63/49/9 68/50/9 67/51/9
f 65/48/4 64/49/4 69/50/4 70/51/4
f 66/48/5 67/49/5 72/50/5 71/51/5
f 68/48/9 65/49/9 70/50/9 73/51/9
f 67/48/9 68/49/9 73/50/9 72/51/9
f 70/48/4 69/49/4 74/50/4 75/51/4
f 71/48/5 72/49/5 77/50/5 76/51/5
f 73/48/9 70/49/9 75/50/9 78/51/9
f 72/48/9 73/49/9 78/50/9 77/51/9
f 75/48/3 74/49/3 79/50/3 80/51/3
f 76/48/3 77/49/3 82/50/3 81/51/3
f 78/48/3 75/49/3 80/50/3 83/51/3
f 77/48/3 78/49/3 83/50/3 82/51/3
f 81/52/3 82/53/3 83/54/3 80/55/3 79/51/3
f 91/1/10 89/4/10 107/3/10 106/2/10
f 105/5/2 104/8/2 103/7/2 87/6/2
f 85/9/3 99/12/3 110/11/3 109/10/3
f 91/1/4 102/14/4 101/13/4 89/4/4
f 88/15/5 96/18/5 95/17/5 90/16/5
f 84/19/5 98/22/5 97/21/5 92/20/5
f 93/23/10 85/26/10 109/25/10 108/24/10
f 93/23/4 100/28/4 99/27/4 85/26/4
f 95/17/5 94/30/5 86/29/5 90/16/5
f 87/6/4 103/31/4 102/14/4 91/1/4
f 87/6/10 91/1/10 106/2/10 105/5/10
f 92/20/5 97/21/5 96/18/5 88/15/5
f 89/4/4 101/13/4 100/28/4 93/23/4
f 89/4/10 93/23/10 108/24/10 107/3/10
f 14/32/5 5/33/5 94/30/5 95/17/5
f 96/18/5 10/34/5 14/32/5 95/17/5
f 97/21/5 18/35/5 10/34/5 96/18/5
f 98/22/5 7/36/5 18/35/5 97/21/5
f 100/28/4 19/38/4 8/37/4 99/27/4
f 101/13/4 9/39/4 19/38/4 100/28/4
f 102/14/4 15/40/4 9/39/4 101/13/4
f 103/31/4 6/41/4 15/40/4 102/14/4
f 104/8/2 31/43/2 6/42/2 103/7/2
f 94/44/2 5/45/2 31/43/2 104/8/2
f 86/29/2 94/44/2 104/8/2 105/5/2
f 106/2/10 90/16/10 86/29/10 105/5/10
f 107/3/10 88/15/10 90/16/10 106/2/10
f 108/24/10 92/20/10 88/15/10 107/3/10
f 109/25/10 84/19/10 92/20/10 108/24/10
f 110/11/3 98/47/3 84/46/3 109/10/3
f 98/48/3 111/51/3 39/50/3 7/49/3
f 8/48/3 41/51/3 112/50/3 99/49/3
f 110/48/3 113/51/3 111/50/3 98/49/3
f 99/48/3 112/51/3 113/50/3 110/49/3
f 111/48/3 114/51/3 44/50/3 39/49/3
f 41/48/3 46/51/3 115/50/3 112/49/3
f 113/48/3 116/51/3 114/50/3 111/49/3
f 112/48/3 115/51/3 116/50/3 113/49/3
f 114/48/6 117/51/6 49/50/6 44/49/6
f 46/48/7 51/51/7 118/50/7 115/49/7
f 116/48/11 119/51/11 117/50/11 114/49/11
f 115/48/11 118/51/11 119/50/11 116/49/11
f 117/48/3 120/51/3 54/50/3 49/49/3
f 51/48/3 56/51/3 121/50/3 118/49/3
f 119/48/3 122/51/3 120/50/3 117/49/3
f 118/48/3 121/51/3 122/50/3 119/49/3
f 120/48/3 123/51/3 59/50/3 54/49/3
f 56/48/3 61/51/3 124/50/3 121/49/3
f 122/48/3 125/51/3 123/50/3 120/49/3
f 121/48/3 124/51/3 125/50/3 122/49/3
f 123/48/4 126/51/4 64/50/4 59/49/4
f 61/48/5 66/51/5 127/50/5 124/49/5
f 125/48/12 128/51/12 126/50/12 123/49/12
f 124/48/12 127/51/12 128/50/12 125/49/12
f 126/48/4 129/51/4 69/50/4 64/49/4
f 66/48/5 71/51/5 130/50/5 127/49/5
f 128/48/12 131/51/12 129/50/12 126/49/12
f 127/48/12 130/51/12 131/50/12 128/49/12
f 129/48/4 132/51/4 74/50/4 69/49/4
f 71/48/5 76/51/5 133/50/5 130/49/5
f 131/48/12 134/51/12 132/50/12 129/49/12
f 130/48/12 133/51/12 134/50/12 131/49/12
f 132/48/3 135/51/3 79/50/3 74/49/3
f 76/48/3 81/51/3 136/50/3 133/49/3
f 134/48/3 137/51/3 135/50/3 132/49/3
f 133/48/3 136/51/3 137/50/3 134/49/3
f 81/52/3 79/51/3 135/55/3 137/54/3 136/53/3
