# Blender 4.0.1
# www.blender.org
mtllib toiletSeat02.mtl
o pCube5
v -0.413655 1.608546 0.628524
v 0.926305 1.608546 0.661247
v -0.413655 1.664960 0.628524
v 0.926305 1.664960 0.661247
v -0.464875 1.664960 0.000000
v 1.446800 1.664960 0.000000
v -0.464875 1.608546 0.000000
v 1.446800 1.608546 0.000000
v 0.657771 1.608546 0.766795
v 0.657771 1.664960 0.766795
v 0.155834 1.608546 0.863971
v 0.155834 1.664960 0.863971
v -0.264877 1.608546 0.708530
v -0.264877 1.664960 0.708530
v 1.136782 1.664960 0.528017
v -0.462005 1.664960 0.395443
v -0.411724 1.608546 0.385484
v 1.136782 1.608546 0.528017
v 1.445058 1.664960 0.095703
v -0.464875 1.664960 0.138887
v -0.464875 1.608546 0.138887
v 1.445058 1.608546 0.095703
v 1.446800 1.634965 0.000000
v 1.445058 1.634965 0.095703
v 1.136782 1.634965 0.528017
v 0.926305 1.634965 0.661247
v 0.657771 1.634965 0.766795
v 0.155834 1.634965 0.863971
v -0.264877 1.634965 0.708530
v -0.413655 1.634965 0.628524
v -0.462005 1.634965 0.395443
v -0.464875 1.634965 0.138887
v -0.464875 1.634965 0.000000
v -0.384341 1.664960 0.621915
v -0.241586 1.664960 0.699511
v -0.433227 1.664960 0.389743
v 0.913718 1.664960 0.653653
v 1.117856 1.664960 0.524435
v 0.653272 1.664960 0.756021
v 0.166453 1.664960 0.850270
v 1.415744 1.664960 0.095703
v -0.435560 1.664960 0.138887
v 1.417485 1.664960 0.000000
v -0.435560 1.664960 0.000000
v -0.279965 1.664960 0.586835
v -0.117964 1.664960 0.651641
v -0.280483 1.664960 0.359490
v 0.846910 1.664960 0.613342
v 1.055380 1.664960 0.460608
v 0.629394 1.664960 0.698837
v 0.222817 1.664960 0.777550
v 1.296778 1.664960 0.095098
v -0.279965 1.664960 0.138887
v 1.296778 1.664960 0.000000
v -0.279965 1.664960 0.000000
v -0.214945 1.658813 0.413519
v -0.066563 1.658813 0.456645
v -0.218085 1.658813 0.263678
v 0.817193 1.658813 0.419970
v 0.973349 1.658813 0.351073
v 0.617963 1.658813 0.476649
v 0.245568 1.658813 0.513995
v 1.229239 1.658813 0.093891
v -0.214945 1.658813 0.109475
v 1.261646 1.658813 0.000000
v -0.214945 1.658813 0.000000
v -0.214945 1.647282 0.413519
v -0.066563 1.647282 0.456645
v -0.218085 1.647282 0.263678
v 0.817193 1.647282 0.419970
v 0.973349 1.647282 0.351073
v 0.617963 1.647282 0.476649
v 0.245568 1.647282 0.513995
v 1.229239 1.647282 0.093891
v -0.214945 1.647282 0.109475
v 1.261646 1.647282 0.000000
v -0.214945 1.647282 0.000000
v -0.214945 1.613049 0.413519
v -0.066563 1.613049 0.456645
v -0.214945 1.613049 0.359342
v 0.817193 1.613049 0.419970
v 0.973349 1.613049 0.351073
v 0.617963 1.613049 0.476649
v 0.245568 1.613049 0.513995
v 1.229239 1.613049 0.093891
v -0.214945 1.613049 0.109475
v 1.261646 1.613049 0.000000
v -0.214945 1.613049 0.000000
v -0.364393 1.606901 0.584664
v -0.225736 1.606901 0.661269
v -0.413645 1.606901 0.385865
v 0.905153 1.606901 0.615996
v 1.104977 1.606901 0.488430
v 0.650211 1.606901 0.717057
v 0.173679 1.606901 0.810102
v 1.414169 1.606902 0.041545
v -0.415612 1.606901 0.138887
v 1.397538 1.606902 0.000000
v -0.415612 1.606902 0.000000
v -0.413655 1.608546 -0.628524
v 0.926305 1.608546 -0.661247
v -0.413655 1.664960 -0.628524
v 0.926305 1.664960 -0.661247
v 0.657771 1.608546 -0.766795
v 0.657771 1.664960 -0.766795
v 0.155834 1.608546 -0.863971
v 0.155834 1.664960 -0.863971
v -0.264877 1.608546 -0.708530
v -0.264877 1.664960 -0.708530
v 1.136782 1.664960 -0.528017
v -0.462005 1.664960 -0.395443
v -0.411724 1.608546 -0.385484
v 1.136782 1.608546 -0.528017
v 1.445058 1.664960 -0.095703
v -0.464875 1.664960 -0.138887
v -0.464875 1.608546 -0.138887
v 1.445058 1.608546 -0.095703
v 1.445058 1.634965 -0.095703
v 1.136782 1.634965 -0.528017
v 0.926305 1.634965 -0.661247
v 0.657771 1.634965 -0.766795
v 0.155834 1.634965 -0.863971
v -0.264877 1.634965 -0.708530
v -0.413655 1.634965 -0.628524
v -0.462005 1.634965 -0.395443
v -0.464875 1.634965 -0.138887
v -0.384341 1.664960 -0.621915
v -0.241586 1.664960 -0.699511
v -0.433227 1.664960 -0.389743
v 0.913718 1.664960 -0.653653
v 1.117856 1.664960 -0.524435
v 0.653272 1.664960 -0.756021
v 0.166453 1.664960 -0.850270
v 1.415744 1.664960 -0.095703
v -0.435560 1.664960 -0.138887
v -0.279965 1.664960 -0.586835
v -0.117964 1.664960 -0.651641
v -0.280483 1.664960 -0.359491
v 0.846910 1.664960 -0.613342
v 1.055380 1.664960 -0.460608
v 0.629394 1.664960 -0.698837
v 0.222817 1.664960 -0.777550
v 1.296778 1.664960 -0.095139
v -0.279965 1.664960 -0.138887
v -0.214945 1.658813 -0.413519
v -0.066563 1.658813 -0.456645
v -0.218085 1.658813 -0.263678
v 0.817193 1.658813 -0.419970
v 0.973349 1.658813 -0.351073
v 0.617963 1.658813 -0.476649
v 0.245568 1.658813 -0.513996
v 1.229239 1.658813 -0.093891
v -0.214945 1.658813 -0.109475
v -0.214945 1.647282 -0.413519
v -0.066563 1.647282 -0.456645
v -0.218085 1.647282 -0.263678
v 0.817193 1.647282 -0.419970
v 0.973349 1.647282 -0.351073
v 0.617963 1.647282 -0.476649
v 0.245568 1.647282 -0.513996
v 1.229239 1.647282 -0.093891
v -0.214945 1.647282 -0.109475
v -0.214945 1.613049 -0.413519
v -0.066563 1.613049 -0.456645
v -0.214945 1.613049 -0.359342
v 0.817193 1.613049 -0.419970
v 0.973349 1.613049 -0.351073
v 0.617963 1.613049 -0.476649
v 0.245568 1.613049 -0.513996
v 1.229239 1.613049 -0.093891
v -0.214945 1.613049 -0.109475
v -0.364393 1.606902 -0.584664
v -0.225736 1.606902 -0.661269
v -0.413645 1.606902 -0.385864
v 0.905153 1.606902 -0.615996
v 1.104977 1.606902 -0.488430
v 0.650211 1.606902 -0.717057
v 0.173679 1.606902 -0.810102
v 1.414169 1.606902 -0.041545
v -0.415612 1.606902 -0.138887
vn -0.4736 -0.0000 0.8807
vn -0.3821 -0.0000 0.9241
vn -0.3821 0.0001 0.9241
vn 0.5348 -0.0000 0.8449
vn 0.7369 -0.0000 0.6760
vn 0.7369 0.0002 0.6760
vn -0.7153 -0.6948 0.0747
vn -0.7160 -0.6946 0.0698
vn -0.8997 -0.4136 0.1397
vn -0.9061 -0.4123 0.0948
vn 0.2544 -0.0000 0.9671
vn 0.2545 -0.0000 0.9671
vn 0.3658 -0.0000 0.9307
vn -0.0630 -0.0000 0.9980
vn -0.9595 -0.2795 0.0357
vn -0.8459 -0.5299 0.0607
vn 0.8624 -0.0000 0.5063
vn 0.8623 -0.0000 0.5063
vn -1.0000 -0.0000 -0.0000
vn 1.0000 -0.0000 -0.0000
vn -0.0630 -0.0002 0.9980
vn -0.3821 -0.0005 0.9241
vn -0.9792 -0.0000 0.2031
vn -0.9946 -0.0000 0.1041
vn -1.0000 -0.0000 0.0073
vn -0.0000 1.0000 -0.0000
vn 0.0105 0.9995 -0.0301
vn 0.0941 0.9956 -0.0009
vn -0.0201 0.9992 -0.0331
vn -0.0098 0.9995 -0.0286
vn -0.0038 0.9997 -0.0254
vn 0.0072 0.9996 -0.0256
vn -0.0515 0.9978 -0.0412
vn 0.0943 0.9955 -0.0000
vn 0.0970 0.9953 0.0009
vn 0.0968 0.9953 0.0009
vn -0.1186 0.9927 -0.0203
vn -0.1187 0.9929 -0.0000
vn 0.0941 0.9956 -0.0000
vn 0.2791 -0.0000 -0.9603
vn 0.9998 -0.0000 -0.0210
vn 0.9998 0.0122 -0.0182
vn 0.9998 0.0117 -0.0183
vn -0.4037 -0.0000 -0.9149
vn -0.2736 -0.0000 -0.9618
vn -0.0998 -0.0000 -0.9950
vn 0.1807 -0.0000 -0.9835
vn -0.7089 -0.0000 -0.7053
vn 0.9998 -0.0000 0.0204
vn -0.9453 -0.0000 -0.3263
vn 0.9998 0.0189 0.0026
vn 0.9996 0.0243 -0.0154
vn 0.9984 0.0566 0.0078
vn 0.9996 0.0283 0.0039
vn 0.0102 -0.9997 -0.0244
vn 0.0318 -0.9995 -0.0062
vn -0.0149 -0.9995 -0.0270
vn -0.0089 -0.9996 -0.0257
vn -0.0036 -0.9997 -0.0232
vn 0.0063 -0.9997 -0.0217
vn -0.0319 -0.9992 -0.0256
vn 0.0307 -0.9995 -0.0001
vn 0.0308 -0.9995 -0.0001
vn -0.0390 -0.9992 -0.0045
vn -0.0390 -0.9992 -0.0000
vn 0.0306 -0.9995 -0.0000
vn 0.0442 -0.9990 -0.0048
vn 0.0442 -0.9990 -0.0000
vn 0.0256 -0.9995 0.0180
vn 0.0176 -0.9995 0.0277
vn 0.0122 -0.9994 0.0309
vn 0.0063 -0.9995 0.0324
vn -0.0100 -0.9996 0.0269
vn -0.0129 -0.9996 0.0236
vn -0.0631 -0.9980 0.0068
vn -0.0694 -0.9976 0.0077
vn -0.0334 -0.9994 -0.0000
vn -0.4736 -0.0000 -0.8807
vn -0.3821 -0.0000 -0.9241
vn 0.5348 -0.0000 -0.8449
vn 0.7369 0.0001 -0.6760
vn 0.7369 0.0011 -0.6760
vn -0.7153 -0.6948 -0.0747
vn -0.9061 -0.4123 -0.0948
vn -0.8999 -0.4132 -0.1398
vn -0.7160 -0.6946 -0.0698
vn 0.2544 -0.0004 -0.9671
vn 0.3658 -0.0000 -0.9307
vn 0.2545 -0.0000 -0.9671
vn -0.0630 0.0002 -0.9980
vn -0.0630 -0.0000 -0.9980
vn -0.8459 -0.5299 -0.0607
vn -0.9595 -0.2795 -0.0357
vn 0.8624 0.0002 -0.5063
vn 0.8623 -0.0000 -0.5063
vn 0.7369 -0.0000 -0.6760
vn -0.9946 -0.0000 -0.1041
vn -0.9792 -0.0000 -0.2031
vn -1.0000 -0.0000 -0.0072
vn 0.0105 0.9995 0.0301
vn 0.0941 0.9956 0.0009
vn -0.0201 0.9992 0.0331
vn -0.0098 0.9995 0.0286
vn -0.0038 0.9997 0.0254
vn 0.0072 0.9996 0.0256
vn -0.0515 0.9978 0.0412
vn 0.0968 0.9953 -0.0009
vn 0.0970 0.9953 -0.0009
vn -0.1186 0.9927 0.0203
vn 0.2791 -0.0000 0.9603
vn 0.9998 -0.0000 0.0210
vn 0.9998 0.0117 0.0183
vn 0.9998 0.0122 0.0182
vn -0.4037 -0.0000 0.9149
vn -0.2736 -0.0000 0.9618
vn -0.0998 -0.0000 0.9950
vn 0.1807 -0.0000 0.9835
vn -0.7089 -0.0000 0.7053
vn 0.9998 -0.0000 -0.0204
vn 0.9999 0.0142 -0.0070
vn 0.9998 0.0010 -0.0201
vn -0.9453 -0.0000 0.3263
vn 0.9996 0.0243 0.0154
vn 0.9996 0.0283 -0.0039
vn 0.9984 0.0566 -0.0078
vn 0.0102 -0.9997 0.0244
vn 0.0318 -0.9995 0.0062
vn -0.0149 -0.9995 0.0270
vn -0.0089 -0.9996 0.0257
vn -0.0036 -0.9997 0.0232
vn 0.0063 -0.9997 0.0217
vn -0.0319 -0.9992 0.0256
vn 0.0307 -0.9995 0.0001
vn 0.0308 -0.9995 0.0001
vn -0.0390 -0.9992 0.0045
vn 0.0442 -0.9990 0.0048
vn 0.0256 -0.9995 -0.0180
vn 0.0176 -0.9995 -0.0277
vn 0.0122 -0.9994 -0.0309
vn 0.0063 -0.9995 -0.0324
vn -0.0100 -0.9996 -0.0269
vn -0.0129 -0.9996 -0.0236
vn -0.0631 -0.9980 -0.0068
vn -0.0694 -0.9976 -0.0077
vt 0.375000 0.000000
vt 0.400080 0.000000
vt 0.400080 0.117075
vt 0.375000 0.117075
vt 0.625000 0.000000
vt 0.698733 0.000000
vt 0.698733 0.117075
vt 0.625000 0.117075
vt 0.301267 0.000000
vt 0.301267 0.117075
vt 0.588373 0.117075
vt 0.588373 0.000000
vt 0.452838 0.117075
vt 0.452838 0.000000
vt 0.153600 0.117075
vt 0.153600 0.000000
vt 0.846400 0.117075
vt 0.846400 0.000000
vt 0.125000 0.000000
vt 0.125000 0.117075
vt 0.875000 0.000000
vt 0.875000 0.117075
vt 0.846400 0.250000
vt 0.875000 0.250000
vt 0.698733 0.250000
vt 0.625000 0.250000
vt 0.588373 0.250000
vt 0.452838 0.250000
vt 0.400080 0.250000
vt 0.375000 0.250000
vt 0.301267 0.250000
vt 0.153600 0.250000
vt 0.125000 0.250000
vt 0.000000 0.000000
vt 1.000000 0.000000
vt 1.000000 1.000000
vt 0.000000 1.000000
vt 0.161497 0.000000
vt 1.000000 0.000000
vt 0.875732 0.448670
vt 0.000000 0.448670
vt 0.045933 0.000000
vt 1.000000 0.000000
vt 0.998278 0.110071
vt 0.000000 0.107657
vt 0.088296 0.000000
vt 0.956732 0.290709
vt 0.000000 0.287774
vt 0.084007 0.000000
vt 1.000000 0.000000
vt 0.962929 0.275033
vt 0.000000 0.272467
vt 0.069368 0.000000
vt 1.000000 0.000000
vt 0.979679 0.169530
vt 0.000000 0.167936
vt 0.009719 0.000000
vt 0.960803 0.000000
vt 1.000000 0.200059
vt 0.000000 0.202802
vt 0.057193 0.000000
vt 0.991061 0.415789
vt 0.000000 0.418644
vt 0.000000 0.000000
vt 0.686928 0.000000
vt 1.000000 0.391587
vt 0.282576 0.391587
vt 0.000000 0.000000
vt 0.918624 0.000000
vt 1.000000 0.112769
vt 0.040591 0.112769
vt 0.000000 0.000000
vt 0.838503 0.000000
vt 1.000000 0.448671
vt 0.124268 0.448671
s 1
usemtl phong2
f 1/1/1 13/2/2 29/3/3 30/4/1
f 2/5/4 18/6/5 25/7/6 26/8/4
f 17/9/7 1/1/8 30/4/9 31/10/10
f 27/11/11 9/12/12 2/5/13 26/8/13
f 27/11/11 28/13/14 11/14/14 9/12/12
f 29/3/3 13/2/2 11/14/14 28/13/14
f 17/9/7 31/10/10 32/15/15 21/16/16
f 24/17/17 25/7/6 18/6/5 22/18/18
f 7/19/19 21/16/16 32/15/15 33/20/19
f 24/17/17 22/18/18 8/21/20 23/22/20
f 19/23/18 24/17/17 23/22/20 6/24/20
f 19/23/18 15/25/5 25/7/6 24/17/17
f 26/8/4 25/7/6 15/25/5 4/26/4
f 10/27/12 27/11/11 26/8/13 4/26/13
f 10/27/12 12/28/21 28/13/14 27/11/11
f 14/29/22 29/3/3 28/13/14 12/28/21
f 30/4/1 29/3/3 14/29/22 3/30/1
f 31/10/10 30/4/9 3/30/23 16/31/24
f 32/15/15 31/10/10 16/31/24 20/32/25
f 33/20/19 32/15/15 20/32/25 5/33/19
f 3/34/26 14/35/26 35/36/26 34/37/26
f 16/34/26 3/35/26 34/36/26 36/37/26
f 4/34/26 15/35/26 38/36/26 37/37/26
f 10/34/26 4/35/26 37/36/26 39/37/26
f 12/34/26 10/35/26 39/36/26 40/37/26
f 14/34/26 12/35/26 40/36/26 35/37/26
f 15/34/26 19/35/26 41/36/26 38/37/26
f 20/34/26 16/35/26 36/36/26 42/37/26
f 19/34/26 6/35/26 43/36/26 41/37/26
f 5/34/26 20/35/26 42/36/26 44/37/26
f 34/34/26 35/35/26 46/36/26 45/37/26
f 36/34/26 34/35/26 45/36/26 47/37/26
f 37/34/26 38/35/26 49/36/26 48/37/26
f 39/34/26 37/35/26 48/36/26 50/37/26
f 40/34/26 39/35/26 50/36/26 51/37/26
f 35/34/26 40/35/26 51/36/26 46/37/26
f 38/34/26 41/35/26 52/36/26 49/37/26
f 42/34/26 36/35/26 47/36/26 53/37/26
f 41/34/26 43/35/26 54/36/26 52/37/26
f 44/34/26 42/35/26 53/36/26 55/37/26
f 45/34/27 46/35/27 57/36/27 56/37/27
f 47/34/28 45/35/28 56/36/28 58/37/28
f 48/34/29 49/35/29 60/36/29 59/37/29
f 50/34/30 48/35/30 59/36/30 61/37/30
f 51/34/31 50/35/31 61/36/31 62/37/31
f 46/34/32 51/35/32 62/36/32 57/37/32
f 49/34/33 52/35/33 63/36/33 60/37/33
f 53/34/34 47/35/35 58/36/35 64/37/36
f 52/34/37 54/35/38 65/36/38 63/37/37
f 55/34/39 53/35/34 64/36/36 66/37/39
f 56/34/40 57/35/40 68/36/40 67/37/40
f 58/34/41 56/35/41 67/36/42 69/37/43
f 59/34/44 60/35/44 71/36/44 70/37/44
f 61/34/45 59/35/45 70/36/45 72/37/45
f 62/34/46 61/35/46 72/36/46 73/37/46
f 57/34/47 62/35/47 73/36/47 68/37/47
f 60/34/48 63/35/48 74/36/48 71/37/48
f 64/34/49 58/35/49 69/36/49 75/37/49
f 63/34/50 65/35/19 76/36/19 74/37/50
f 66/34/20 64/35/20 75/36/51 77/37/20
f 67/34/40 68/35/40 79/36/40 78/37/40
f 69/34/43 67/35/42 78/36/52 80/37/52
f 70/34/44 71/35/44 82/36/44 81/37/44
f 72/34/45 70/35/45 81/36/45 83/37/45
f 73/34/46 72/35/46 83/36/46 84/37/46
f 68/34/47 73/35/47 84/36/47 79/37/47
f 71/34/48 74/35/48 85/36/48 82/37/48
f 75/34/51 69/35/53 80/36/53 86/37/54
f 74/34/50 76/35/19 87/36/19 85/37/50
f 77/34/20 75/35/51 86/36/54 88/37/20
f 78/34/55 79/35/55 90/36/55 89/37/55
f 80/34/56 78/35/56 89/36/56 91/37/56
f 81/34/57 82/35/57 93/36/57 92/37/57
f 83/34/58 81/35/58 92/36/58 94/37/58
f 84/34/59 83/35/59 94/36/59 95/37/59
f 79/34/60 84/35/60 95/36/60 90/37/60
f 82/34/61 85/35/61 96/36/61 93/37/61
f 86/34/62 80/35/63 91/36/63 97/37/62
f 85/34/64 87/35/65 98/36/65 96/37/64
f 88/34/66 86/35/62 97/36/62 99/37/66
f 96/38/67 98/39/68 8/40/68 22/41/67
f 93/42/69 96/43/69 22/44/69 18/45/69
f 92/46/70 93/35/70 18/47/70 2/48/70
f 94/49/71 92/50/71 2/51/71 9/52/71
f 95/53/72 94/54/72 9/55/72 11/56/72
f 90/57/73 95/58/73 11/59/73 13/60/73
f 89/61/74 90/35/74 13/62/74 1/63/74
f 91/64/75 89/65/75 1/66/75 17/67/75
f 97/68/76 91/69/76 17/70/76 21/71/76
f 99/72/77 97/73/77 21/74/77 7/75/77
f 100/1/78 124/4/78 123/3/79 108/2/79
f 101/5/80 120/8/80 119/7/81 113/6/82
f 112/9/83 125/10/84 124/4/85 100/1/86
f 121/11/87 120/8/88 101/5/88 104/12/89
f 121/11/87 104/12/89 106/14/90 122/13/91
f 123/3/79 122/13/91 106/14/90 108/2/79
f 112/9/83 116/16/92 126/15/93 125/10/84
f 118/17/94 117/18/95 113/6/82 119/7/81
f 7/19/19 33/20/19 126/15/93 116/16/92
f 118/17/94 23/22/20 8/21/20 117/18/95
f 114/23/95 6/24/20 23/22/20 118/17/94
f 114/23/95 118/17/94 119/7/81 110/25/96
f 120/8/80 103/26/80 110/25/96 119/7/81
f 105/27/89 103/26/88 120/8/88 121/11/87
f 105/27/89 121/11/87 122/13/91 107/28/91
f 109/29/79 107/28/91 122/13/91 123/3/79
f 124/4/78 102/30/78 109/29/79 123/3/79
f 125/10/84 111/31/97 102/30/98 124/4/85
f 126/15/93 115/32/99 111/31/97 125/10/84
f 33/20/19 5/33/19 115/32/99 126/15/93
f 102/34/26 127/37/26 128/36/26 109/35/26
f 111/34/26 129/37/26 127/36/26 102/35/26
f 103/34/26 130/37/26 131/36/26 110/35/26
f 105/34/26 132/37/26 130/36/26 103/35/26
f 107/34/26 133/37/26 132/36/26 105/35/26
f 109/34/26 128/37/26 133/36/26 107/35/26
f 110/34/26 131/37/26 134/36/26 114/35/26
f 115/34/26 135/37/26 129/36/26 111/35/26
f 114/34/26 134/37/26 43/36/26 6/35/26
f 5/34/26 44/37/26 135/36/26 115/35/26
f 127/34/26 136/37/26 137/36/26 128/35/26
f 129/34/26 138/37/26 136/36/26 127/35/26
f 130/34/26 139/37/26 140/36/26 131/35/26
f 132/34/26 141/37/26 139/36/26 130/35/26
f 133/34/26 142/37/26 141/36/26 132/35/26
f 128/34/26 137/37/26 142/36/26 133/35/26
f 131/34/26 140/37/26 143/36/26 134/35/26
f 135/34/26 144/37/26 138/36/26 129/35/26
f 134/34/26 143/37/26 54/36/26 43/35/26
f 44/34/26 55/37/26 144/36/26 135/35/26
f 136/34/100 145/37/100 146/36/100 137/35/100
f 138/34/101 147/37/101 145/36/101 136/35/101
f 139/34/102 148/37/102 149/36/102 140/35/102
f 141/34/103 150/37/103 148/36/103 139/35/103
f 142/34/104 151/37/104 150/36/104 141/35/104
f 137/34/105 146/37/105 151/36/105 142/35/105
f 140/34/106 149/37/106 152/36/106 143/35/106
f 144/34/34 153/37/107 147/36/108 138/35/108
f 143/34/109 152/37/109 65/36/38 54/35/38
f 55/34/39 66/37/39 153/36/107 144/35/34
f 145/34/110 154/37/110 155/36/110 146/35/110
f 147/34/111 156/37/112 154/36/113 145/35/111
f 148/34/114 157/37/114 158/36/114 149/35/114
f 150/34/115 159/37/115 157/36/115 148/35/115
f 151/34/116 160/37/116 159/36/116 150/35/116
f 146/34/117 155/37/117 160/36/117 151/35/117
f 149/34/118 158/37/118 161/36/118 152/35/118
f 153/34/119 162/37/120 156/36/121 147/35/119
f 152/34/122 161/37/122 76/36/19 65/35/19
f 66/34/20 77/37/20 162/36/120 153/35/20
f 154/34/110 163/37/110 164/36/110 155/35/110
f 156/34/112 165/37/123 163/36/123 154/35/113
f 157/34/114 166/37/114 167/36/114 158/35/114
f 159/34/115 168/37/115 166/36/115 157/35/115
f 160/34/116 169/37/116 168/36/116 159/35/116
f 155/34/117 164/37/117 169/36/117 160/35/117
f 158/34/118 167/37/118 170/36/118 161/35/118
f 162/34/120 171/37/124 165/36/125 156/35/121
f 161/34/122 170/37/122 87/36/19 76/35/19
f 77/34/20 88/37/20 171/36/124 162/35/120
f 163/34/126 172/37/126 173/36/126 164/35/126
f 165/34/127 174/37/127 172/36/127 163/35/127
f 166/34/128 175/37/128 176/36/128 167/35/128
f 168/34/129 177/37/129 175/36/129 166/35/129
f 169/34/130 178/37/130 177/36/130 168/35/130
f 164/34/131 173/37/131 178/36/131 169/35/131
f 167/34/132 176/37/132 179/36/132 170/35/132
f 171/34/133 180/37/133 174/36/134 165/35/134
f 170/34/135 179/37/135 98/36/65 87/35/65
f 88/34/66 99/37/66 180/36/133 171/35/133
f 179/38/136 117/41/136 8/40/68 98/39/68
f 176/42/137 113/45/137 117/44/137 179/43/137
f 175/46/138 101/48/138 113/47/138 176/35/138
f 177/49/139 104/52/139 101/51/139 175/50/139
f 178/53/140 106/56/140 104/55/140 177/54/140
f 173/57/141 108/60/141 106/59/141 178/58/141
f 172/61/142 100/63/142 108/62/142 173/35/142
f 174/64/143 112/67/143 100/66/143 172/65/143
f 180/68/144 116/71/144 112/70/144 174/69/144
f 99/72/77 7/75/77 116/74/77 180/73/77
